<svg version="1.1" id="Layer_1" xmlns="http://www.w3.org/2000/svg" xmlns:xlink="http://www.w3.org/1999/xlink" x="0px" y="0px"
	 width="100%" viewBox="0 0 1024 1024" enable-background="new 0 0 1024 1024" xml:space="preserve">
<path fill="#000000" opacity="1.000000" stroke="none" 
	d="
M317.014984,349.973419 
	C316.203613,349.842194 315.392273,349.710999 314.416656,349.553223 
	C313.756683,352.248016 316.802185,354.038055 315.770874,356.972900 
	C311.850525,355.338287 311.737885,350.705627 307.772583,347.365082 
	C309.487366,362.020477 316.557648,373.206360 321.861023,385.281128 
	C316.478821,384.036804 313.390259,379.887848 309.796906,376.373383 
	C315.544312,386.892426 322.840973,395.854858 334.913788,400.642883 
	C331.247101,403.538544 328.279266,400.993988 325.157501,401.695526 
	C328.277557,405.507568 333.249969,406.024231 336.541565,409.432922 
	C332.780579,413.609650 329.933075,407.881073 325.481812,409.260681 
	C334.721863,417.353088 343.575531,424.842224 355.873779,427.954956 
	C352.393646,431.791992 348.387848,430.817139 343.885010,432.005676 
	C352.340363,438.820740 362.421783,439.763702 371.318390,444.287811 
	C367.509277,448.045868 362.194031,446.474335 357.631561,449.546021 
	C366.259369,451.876282 373.971924,450.793610 381.610077,448.756165 
	C389.556854,446.636292 395.342834,440.867279 401.859009,435.817627 
	C403.966675,438.943481 402.690002,440.606842 400.440735,442.266388 
	C389.742462,450.159790 387.272675,451.209808 370.734589,454.142700 
	C374.892456,455.173645 378.028290,455.681274 380.959442,456.750183 
	C384.209930,457.935547 387.515594,456.704376 390.966461,457.115631 
	C390.815063,461.803162 385.884521,460.618591 384.186371,463.695160 
	C388.741547,465.556366 393.110657,461.739105 397.426697,463.216370 
	C397.762726,465.142303 395.353882,464.848633 395.124146,467.318390 
	C402.101837,471.285675 408.266083,466.092163 415.181732,464.503357 
	C414.134430,467.320038 412.189850,468.575867 410.434906,470.002197 
	C405.070526,474.362061 405.301575,476.930237 411.342010,480.275513 
	C416.768005,483.280426 421.877960,484.116577 426.218231,482.496368 
	C422.472137,478.602722 416.467499,480.392883 412.525269,476.731079 
	C414.641479,474.665649 416.772705,475.730560 418.605591,476.282104 
	C426.091614,478.534943 433.521881,480.973358 440.967651,483.359131 
	C443.228760,484.083679 445.202393,485.322906 446.889099,486.978088 
	C452.972839,492.948151 459.564056,497.783386 467.165710,502.138947 
	C481.283478,510.228210 492.966797,521.587646 500.777435,536.698120 
	C510.302673,555.125549 514.087646,574.938049 517.250061,595.014099 
	C519.796692,611.181213 520.402344,627.454773 519.325256,643.802551 
	C518.025452,663.530579 515.315979,683.064026 511.107269,702.551941 
	C510.694092,698.423523 510.286926,694.294495 509.866852,690.166809 
	C506.967773,661.678528 505.890472,633.049133 503.473175,604.539001 
	C501.101501,576.566528 493.744751,549.803284 477.507843,526.218140 
	C475.833435,523.785950 474.262695,521.187317 471.362122,519.986267 
	C470.199158,520.768860 470.934357,521.524902 471.250641,522.161804 
	C481.880371,543.565613 486.968353,566.370056 487.262421,590.109192 
	C487.671326,623.119507 492.272003,655.660400 496.874725,688.235046 
	C499.994354,710.313477 502.406097,732.472656 503.337708,754.770874 
	C503.460938,757.720032 503.791595,760.660461 503.420959,763.868225 
	C487.286926,738.266785 471.143280,712.828857 458.380493,685.270508 
	C445.536713,657.537354 439.376892,627.984802 431.850739,598.667297 
	C434.400909,615.428650 437.823181,632.046387 436.515198,649.188965 
	C413.911835,614.841553 397.615112,577.680115 384.531830,537.164978 
	C393.582092,545.079346 403.341248,543.643494 412.678802,544.420898 
	C416.722076,544.757446 417.051086,543.179260 416.507874,539.774658 
	C415.224884,531.733704 415.778503,523.843079 419.570648,516.407715 
	C423.504272,508.694885 427.379944,507.644073 433.776093,513.446045 
	C441.295258,520.266724 448.703430,527.279419 454.809204,535.462585 
	C462.386841,545.618408 469.539581,556.061462 475.192719,567.451660 
	C475.628357,568.329529 475.991028,569.294373 477.134674,569.459534 
	C477.984955,569.188660 478.043762,568.455261 477.976227,567.832336 
	C475.191711,542.144897 467.901917,518.643188 446.936371,501.339630 
	C437.375488,493.448730 426.698181,489.544006 414.394012,489.475525 
	C407.566589,489.437531 401.343842,486.955811 395.460846,483.710541 
	C381.799530,476.174500 367.489929,471.193939 351.607574,472.323975 
	C338.852509,473.231445 326.650818,476.062897 315.745758,483.202393 
	C324.235687,481.388062 332.556519,478.893250 341.115204,477.363464 
	C353.263367,475.192169 365.403748,474.928284 377.254028,478.346710 
	C392.199524,482.658081 405.563538,490.260071 417.729279,499.935760 
	C418.759583,500.755188 419.641113,501.800537 420.451141,502.849518 
	C421.909393,504.737976 422.478760,506.788910 420.508789,508.666656 
	C418.659637,510.429352 416.541840,510.249054 414.576050,508.843872 
	C411.432709,506.596893 408.854645,503.805328 406.624451,500.626404 
	C401.244690,492.958038 394.195190,488.338593 384.915863,485.548767 
	C378.465118,483.609344 372.322327,483.328278 365.928711,483.077789 
	C363.129486,482.968140 360.782257,483.886627 358.785919,485.993591 
	C353.636597,491.428223 348.353577,496.731445 341.727112,500.434601 
	C340.165924,501.307129 339.079620,502.539154 339.324097,504.446136 
	C339.564484,506.321289 340.871094,507.317810 342.577911,507.841217 
	C343.533112,508.134125 344.517120,508.332642 345.473389,508.622467 
	C347.805817,509.329346 350.907745,509.285248 351.482697,512.278503 
	C352.101776,515.501526 350.981842,518.521973 348.548553,520.906799 
	C345.744934,523.654541 342.036530,524.895752 338.727814,526.800781 
	C334.687988,529.126770 330.597717,531.366211 326.582550,533.733459 
	C325.204193,534.546082 323.510925,535.269043 323.764893,537.663269 
	C326.295044,539.709778 329.114563,537.909546 331.755890,537.798218 
	C334.335419,537.689453 336.583405,537.436646 338.554016,539.696106 
	C340.776001,542.243713 343.164093,541.963867 345.215698,539.231567 
	C345.513153,538.835388 345.895874,538.498718 346.262268,538.159546 
	C351.762634,533.067078 356.850067,531.461792 360.454681,534.514648 
	C365.541473,538.822876 369.953979,544.614319 367.210785,552.268677 
	C358.148010,577.556274 343.032715,598.436829 322.404175,615.447510 
	C320.386414,617.111389 318.421417,619.011963 315.018066,619.712097 
	C310.124023,610.851074 306.340485,601.602295 306.858063,591.139526 
	C307.041107,587.439514 310.520752,585.684631 313.061676,583.688660 
	C323.883942,575.187500 330.248535,563.189697 338.088867,552.326904 
	C328.579559,562.559265 319.857788,573.518555 309.798889,583.110657 
	C307.297394,581.366577 307.910889,579.393555 307.985107,577.661499 
	C308.464264,566.477966 309.874634,555.445618 313.565521,544.800537 
	C313.999512,543.548828 314.481293,542.237366 314.522858,540.940247 
	C314.642212,537.213867 311.824585,535.132385 308.539398,536.679810 
	C305.002258,538.345886 303.836853,536.971252 304.039337,533.638000 
	C304.355804,528.429382 302.290009,523.810242 300.431793,519.214600 
	C298.739777,515.029907 295.620544,512.649475 290.826904,511.505219 
	C274.832214,507.687225 262.206024,514.509033 250.172775,523.475647 
	C246.077499,526.527222 242.371780,530.101440 238.332825,533.570251 
	C238.061066,527.094849 251.884308,509.381073 267.398010,496.163330 
	C279.584625,485.780273 292.570435,476.546387 307.029236,469.779022 
	C305.997620,465.775940 290.837494,300.757874 291.038635,295.376251 
	C279.971680,294.317810 269.670074,290.593170 259.982300,284.848175 
	C250.598236,279.283325 241.160675,273.770599 231.200394,269.189178 
	C249.610672,272.672058 264.838684,283.961487 282.439880,289.683075 
	C283.160370,286.574646 281.128113,285.873444 279.205750,284.796387 
	C267.150635,278.042053 255.153687,271.183716 243.155212,264.328796 
	C242.628967,264.028137 242.275650,263.424774 242.363678,261.925568 
	C250.269714,265.384064 258.175751,268.842560 266.127747,272.321167 
	C265.782440,268.656067 265.821411,268.599396 262.895844,266.587341 
	C255.615250,261.580078 248.143051,256.888092 240.260269,252.862946 
	C238.102081,251.760925 235.610550,251.025696 233.685593,247.632996 
	C249.259659,254.190308 262.949524,262.171875 276.962677,269.684479 
	C268.741180,260.287079 257.527740,254.656830 248.039261,246.850464 
	C262.592743,252.346588 274.192474,262.801147 287.707855,269.966248 
	C279.758148,260.166107 268.410370,254.653778 259.149994,246.455490 
	C267.272125,249.703430 274.688904,254.242508 282.592163,258.843628 
	C283.005829,259.045288 283.200775,259.236145 283.200775,259.236145 
	C294.299866,270.721588 296.078979,270.626740 303.637939,256.678894 
	C307.678650,249.222992 310.938293,241.344559 314.575317,233.668579 
	C315.539520,231.633621 315.727112,229.853104 313.056183,228.416656 
	C307.613312,232.258347 307.004303,239.103546 303.337158,244.859055 
	C283.529358,230.569275 265.954926,213.934311 246.878448,199.139557 
	C264.033783,210.493744 281.707916,221.031082 297.625427,234.186340 
	C280.492310,219.072083 265.481201,201.782547 247.663483,187.446701 
	C262.218719,196.731430 275.387268,207.724426 288.604950,218.831406 
	C287.429688,217.371674 286.254425,215.911942 285.171478,214.566849 
	C285.865936,212.791672 286.952637,214.374252 288.128723,213.875427 
	C276.998260,201.704208 264.668579,191.167938 252.895462,179.984253 
	C256.096130,180.320251 258.133362,182.528488 260.324982,184.318954 
	C272.847229,194.549042 285.150360,205.047668 295.880280,217.192886 
	C297.902802,219.482162 300.794037,218.122879 302.730072,220.749237 
	C289.411377,203.766281 274.815491,188.774200 261.166840,172.889862 
	C274.683014,184.190659 286.281982,197.585419 300.612366,207.947586 
	C298.054382,203.183884 292.843201,200.624634 289.847290,195.458008 
	C291.391998,195.458008 292.220856,195.458008 293.128998,195.458008 
	C285.947998,187.338699 278.911530,179.382797 271.875061,171.426895 
	C280.530640,176.613907 286.035278,185.197205 294.035278,191.160461 
	C289.628326,179.312042 283.447235,168.463928 277.504700,157.234055 
	C280.506866,156.539291 280.333008,159.468765 282.857269,159.648575 
	C279.804810,144.263931 275.461365,129.234390 275.267700,113.520874 
	C280.979767,132.706924 287.735382,151.412155 297.789398,168.703323 
	C307.730255,185.799789 317.416992,203.087662 330.221039,219.527893 
	C330.500031,216.692490 329.351257,215.293243 328.656311,213.801468 
	C316.685486,188.105545 305.542419,162.118408 299.199158,134.321411 
	C294.997314,115.908333 295.330719,97.296661 296.147278,78.637474 
	C296.194550,77.556953 296.031281,76.248894 298.003876,75.325058 
	C298.293030,82.620201 299.181793,89.590134 300.749390,96.454697 
	C308.287048,129.462067 321.283356,160.374710 336.181488,190.647369 
	C352.433136,223.670334 376.154602,251.111420 400.100586,278.470520 
	C422.091553,303.596008 445.482819,327.264771 471.617218,348.125854 
	C472.647522,348.948303 473.735535,349.703857 474.841736,350.421051 
	C475.044434,350.552399 475.465485,350.346924 476.075378,350.251678 
	C476.616272,347.291962 475.072327,344.820953 473.793457,342.427948 
	C465.471558,326.856110 456.803284,311.464996 448.710632,295.776276 
	C440.164764,279.208984 431.905396,262.521942 427.917664,244.030685 
	C425.648895,233.510315 419.934052,225.368958 409.385406,220.816162 
	C375.108368,206.022156 352.151215,180.024536 336.217194,146.825241 
	C324.618164,122.658234 316.421173,97.408859 309.776123,71.560730 
	C309.585632,70.819702 309.177002,69.957687 310.108917,69.083267 
	C326.564911,101.635506 342.686432,134.322723 366.610779,162.373520 
	C369.449036,153.238083 364.640289,144.807831 365.606140,135.881180 
	C371.092651,146.346634 376.350159,156.868301 385.152191,165.070007 
	C386.155426,164.144211 384.086548,163.295822 385.923187,161.785172 
	C398.790070,165.078278 411.972778,162.237411 425.748718,158.908676 
	C417.576385,154.795609 409.248901,161.542343 401.648071,156.884918 
	C424.368103,150.491730 447.655273,147.797897 470.886139,144.827698 
	C525.930298,137.789978 579.912476,144.340576 633.460815,157.441635 
	C630.916992,162.930222 626.398804,162.605347 621.779114,162.034454 
	C608.389526,160.379761 595.115173,158.034927 581.967651,155.039780 
	C572.174194,152.808731 562.195618,152.006622 552.256287,151.517944 
	C528.298462,150.340027 504.311920,149.525269 480.335480,151.363968 
	C461.426544,152.814072 442.741547,155.415970 424.866516,162.540588 
	C473.648010,151.795654 523.008545,150.208038 572.255798,156.043274 
	C599.756592,159.301819 627.682129,162.162994 654.353760,170.750275 
	C653.847046,173.965546 651.441772,174.810318 650.023560,177.364059 
	C658.930481,171.312027 664.204407,162.747803 670.444519,155.352509 
	C671.329468,155.889923 671.632446,156.023666 671.874573,156.229126 
	C673.389709,157.514725 671.027100,160.820969 674.111633,161.069977 
	C676.944458,161.298660 678.544861,158.955338 679.907654,156.901459 
	C688.204590,144.396408 695.631226,131.406204 701.791992,117.694328 
	C704.824524,110.945023 708.225830,104.361435 712.215820,97.997520 
	C710.133118,111.694778 704.534302,124.314537 700.605042,138.352081 
	C716.903442,120.634377 725.318115,99.626320 732.800781,77.640060 
	C734.780884,79.975441 733.612122,81.544739 733.263367,83.014771 
	C727.764282,106.196770 718.825500,127.968445 706.678650,148.477432 
	C702.953979,154.766266 699.993469,161.504532 696.585205,167.985596 
	C695.270325,170.486023 694.481445,172.627365 698.666016,173.358353 
	C697.778625,174.412323 697.360229,175.179657 696.719177,175.630722 
	C683.475098,184.949570 674.070679,198.590759 660.441650,207.546921 
	C652.614441,212.690460 644.575012,217.353546 636.173645,221.416290 
	C631.130493,223.855087 627.460938,227.455261 625.377075,232.660629 
	C621.703430,241.837418 614.159180,248.806122 610.929993,258.268982 
	C602.093567,284.163330 587.872620,307.334167 574.125671,330.749329 
	C570.681091,336.616394 568.002747,342.889709 565.220581,350.207306 
	C569.992188,348.273102 572.489807,344.876312 575.445740,342.225311 
	C589.705139,329.436951 604.842590,317.670715 618.522400,304.190674 
	C635.866699,287.099548 652.167358,269.065796 668.296021,250.865936 
	C706.717529,207.510376 728.631653,155.996262 742.148438,100.404190 
	C743.286987,95.721489 743.713806,90.865738 744.607361,85.232643 
	C752.677979,102.812729 742.144348,160.651520 723.983826,203.530533 
	C728.817749,197.636139 732.718445,191.092178 736.410217,184.452866 
	C740.211121,177.617401 743.688904,170.599670 747.212891,163.613663 
	C750.740479,156.620667 753.864197,149.453064 756.712646,142.144806 
	C759.511658,134.963379 761.590576,127.531937 764.436035,120.321838 
	C765.350342,138.022415 760.297180,154.595184 755.871643,171.487732 
	C758.057861,168.885971 760.244019,166.284210 762.430237,163.682465 
	C758.953125,176.045013 749.105774,184.739471 745.021973,196.970474 
	C753.237183,189.570618 761.452393,182.170761 769.667542,174.770905 
	C765.959595,182.576080 759.324402,187.612686 753.652100,193.524185 
	C748.050598,199.361923 743.253540,205.834549 739.078735,212.817886 
	C750.988220,200.160950 762.790344,187.422165 776.807495,176.902161 
	C758.331726,194.715073 742.973938,215.075012 727.995544,235.820831 
	C747.594971,214.754974 767.313782,193.815506 790.948853,177.087708 
	C790.672607,179.721680 788.601807,180.887604 787.027893,182.413803 
	C772.560791,196.441650 757.550903,209.919266 743.998169,224.872665 
	C742.996460,225.977997 742.139038,227.214142 740.862915,228.929199 
	C738.993347,231.018402 737.475464,232.567825 735.679810,234.295151 
	C734.261597,235.426056 733.212646,236.528778 731.958618,237.296387 
	C730.154541,238.400726 728.190918,239.444611 729.936584,241.841919 
	C732.005554,244.683411 733.555603,242.581512 735.021362,240.982117 
	C735.001770,240.994522 734.961426,241.017609 734.961426,241.017609 
	C739.681396,238.416153 743.419250,234.571045 747.274170,230.945450 
	C759.864258,219.104370 774.567932,210.355377 789.076660,201.303360 
	C789.365112,201.675644 789.653625,202.047928 789.942078,202.420197 
	C784.375183,206.563095 778.768372,210.653656 773.252319,214.863205 
	C767.429688,219.306763 761.506531,223.610352 756.069214,228.563248 
	C750.831299,233.334427 745.444214,237.925781 741.046448,243.572586 
	C755.327942,234.436493 767.262756,221.945221 782.784424,214.623840 
	C779.648621,218.773529 775.152039,221.263901 771.231384,224.431351 
	C763.333313,230.812042 755.483765,237.269730 747.321350,243.299240 
	C743.247314,246.308685 738.760681,249.337631 733.281494,246.540924 
	C732.302673,248.695786 733.329102,249.965103 733.916687,251.252472 
	C744.746216,274.980072 752.045593,299.862244 758.326477,325.099640 
	C761.909302,339.495880 765.149780,353.867126 765.357666,368.843628 
	C765.770386,398.577026 757.346497,425.980927 744.315369,452.274933 
	C738.926086,463.149445 732.718628,473.568176 725.528564,484.768921 
	C741.989075,489.260803 757.848450,493.124207 770.926941,503.439056 
	C783.684204,513.500488 794.557007,525.240601 804.192993,539.445251 
	C800.762451,539.295776 799.622559,537.269104 798.224121,535.901489 
	C785.643616,523.598083 771.829651,512.999451 756.316956,504.592133 
	C741.219604,496.409943 724.900024,492.909973 708.034119,491.325104 
	C697.074280,490.295258 686.125000,490.183319 675.114990,491.045380 
	C660.265442,492.208069 645.529297,489.579010 630.725220,488.954346 
	C619.438904,488.478119 608.858765,490.543762 599.235962,496.667389 
	C598.424255,497.183960 597.715637,497.862640 596.485657,498.843567 
	C600.323547,500.551086 603.843689,499.556213 606.448303,498.239044 
	C615.460999,493.681274 625.215088,493.943054 634.760376,493.164490 
	C645.539551,492.285309 656.377930,491.975555 667.197083,491.775208 
	C691.510559,491.324951 714.791687,496.999084 737.555847,504.781769 
	C743.728943,506.892212 749.278076,511.003601 754.438904,516.089355 
	C751.729614,516.937683 750.114929,515.782898 748.371948,515.481812 
	C747.135986,515.268372 746.042786,515.539001 745.354736,516.713135 
	C744.533081,518.115234 744.915344,519.376709 746.116577,520.236755 
	C748.686523,522.076599 751.297546,523.872620 753.991760,525.523193 
	C769.925903,535.285339 781.893921,549.103333 793.124451,563.679565 
	C793.830505,564.596008 794.514526,565.576477 794.311646,567.200073 
	C791.968445,567.617493 790.915833,565.613892 789.618713,564.413147 
	C779.231323,554.796936 769.378235,544.607727 757.950928,536.129272 
	C744.657043,526.265991 729.966431,519.177124 714.081848,515.039978 
	C708.171204,513.500549 702.786499,509.467682 696.590027,510.071533 
	C690.947205,510.621429 685.858826,508.491394 679.371704,508.239227 
	C692.386353,512.699036 705.235046,514.273315 716.818420,519.696350 
	C728.663208,525.241821 738.980347,533.217102 749.245117,541.193970 
	C759.601440,549.242004 768.136536,558.981567 775.372986,569.898743 
	C782.581787,580.774109 788.743835,592.193604 793.144409,604.489990 
	C797.497620,616.654236 800.949280,629.068665 803.253235,642.354736 
	C799.798218,641.476135 799.369019,638.928894 798.387512,637.018982 
	C789.401672,619.532043 780.856995,601.766602 769.510803,585.647705 
	C757.080750,567.988953 743.381775,551.438477 724.146240,540.581177 
	C721.226440,538.933105 718.409058,536.628540 713.627258,537.218262 
	C728.039246,553.587463 742.417297,569.006531 753.107849,587.327209 
	C763.840088,605.719482 770.290283,625.492371 773.291626,646.482666 
	C776.296204,667.495911 776.165588,688.417175 772.213074,709.227966 
	C771.717224,709.281311 771.221375,709.334595 770.725464,709.387878 
	C769.388428,702.984070 768.092834,696.571289 766.707336,690.177917 
	C759.437439,656.630920 751.357666,623.353333 737.942993,591.559937 
	C717.112000,542.189087 679.457703,514.954224 627.323730,506.629700 
	C620.410645,505.525848 613.116638,505.297668 606.552490,510.034180 
	C608.730408,513.336487 612.103943,513.558044 614.895203,514.614746 
	C647.348633,526.900757 671.223572,549.412964 690.302124,577.665710 
	C692.483276,580.895813 693.781311,584.441406 693.377808,588.747498 
	C689.442200,589.307190 686.933716,588.284912 684.605713,584.514099 
	C672.276367,564.543091 658.291199,545.961975 638.062622,533.100281 
	C636.410400,532.049744 634.910706,530.656677 632.611145,530.400330 
	C632.717163,532.024292 634.042480,532.606445 634.910461,533.389099 
	C646.827271,544.133667 656.988831,556.528015 667.584351,568.485535 
	C683.615112,586.576904 692.091370,608.292603 696.253052,631.834534 
	C697.728333,640.179688 698.929382,648.575256 700.125916,656.966309 
	C700.446594,659.215210 700.789795,661.551575 699.783325,664.518982 
	C697.436462,660.212280 697.334717,655.871704 696.303101,651.871033 
	C689.431213,625.222107 677.537231,600.653015 665.517700,576.103210 
	C658.271179,561.302307 647.947205,549.075806 635.476135,538.506897 
	C622.644348,527.632263 607.943787,520.465393 591.619568,516.639648 
	C584.999756,515.088257 583.497498,515.725037 581.782166,520.112244 
	C590.708496,525.147461 599.188354,531.027954 606.567688,538.268921 
	C625.456848,556.804138 640.393433,577.675415 644.779236,604.597900 
	C645.860840,611.237915 645.318176,616.899353 643.049316,621.590393 
	C641.415100,621.125122 641.770020,619.714355 641.980774,618.749268 
	C643.425171,612.133423 641.252075,606.174805 638.493347,600.454651 
	C626.479553,575.544128 610.662720,553.542053 589.129333,535.844177 
	C580.992432,529.156555 572.309021,524.530701 561.450989,525.099731 
	C558.055176,525.277771 558.049438,525.168701 555.963074,528.863892 
	C559.667847,530.651917 564.146179,528.474487 568.511475,531.257874 
	C561.380188,533.643372 554.890564,531.473083 548.302063,531.993896 
	C569.679443,543.921936 586.414124,560.455566 598.642944,581.266174 
	C611.346924,602.885254 610.655273,626.438354 608.118835,650.063477 
	C607.439209,650.218079 606.759521,650.372620 606.079895,650.527222 
	C604.607849,645.743896 602.998413,640.997925 601.687927,636.170837 
	C596.439331,616.837036 590.312683,597.821472 580.485352,580.254578 
	C572.015564,565.114502 561.804810,551.451721 546.314148,542.615173 
	C541.880127,540.085815 537.096558,538.810608 532.089966,538.305420 
	C530.179504,538.112610 527.760681,537.449036 526.744019,539.758789 
	C525.848877,541.792358 527.827454,543.073914 529.011414,544.379639 
	C541.794067,558.476990 550.242371,574.879150 555.373047,593.135681 
	C563.134399,620.753174 561.135376,648.163086 553.945618,675.494995 
	C550.896667,687.085632 547.924744,698.703247 543.437134,709.855652 
	C542.951721,711.062134 542.709900,712.430237 541.314148,713.019226 
	C540.004150,712.676392 540.437439,711.696167 540.700806,711.034973 
	C548.275269,692.017761 547.326843,672.084351 546.466003,652.312927 
	C545.553833,631.361877 543.454224,610.485962 538.721924,589.958801 
	C535.133118,574.391418 528.139465,560.726929 517.906494,548.398010 
	C507.166046,535.457703 495.573669,522.791077 487.412323,508.284058 
	C481.158569,497.167816 471.976257,489.251038 464.602356,479.522736 
	C458.101715,470.946564 449.036896,466.736542 438.476807,465.503784 
	C437.186829,465.353180 435.911530,465.076813 433.308502,464.634033 
	C441.496063,458.818939 446.939331,451.926514 451.590698,444.264587 
	C456.236847,436.611267 455.436798,427.118927 460.409271,419.486389 
	C460.223419,430.414886 454.847809,440.830261 458.096161,452.073273 
	C462.345245,451.336456 460.928162,445.491180 465.344879,444.834656 
	C467.311554,449.245697 464.983612,454.309296 467.117493,459.379425 
	C470.827271,454.697418 470.811951,449.556030 471.507111,444.803101 
	C473.095886,433.940491 474.228363,423.010773 475.512482,412.104370 
	C475.687347,410.619354 475.718475,409.111816 475.725769,407.614288 
	C475.732666,406.204956 475.320343,404.940033 473.838745,404.409973 
	C472.325867,403.868683 470.818237,403.948090 469.668213,405.169800 
	C468.530701,406.378143 467.483429,407.687775 466.525024,409.043732 
	C465.631073,410.308502 464.499268,410.935760 463.114929,410.246277 
	C459.031006,408.212250 455.056458,409.358185 451.010498,410.345886 
	C442.229431,412.489502 433.483154,414.668823 424.283661,412.673492 
	C403.784454,408.227173 386.170868,399.277100 373.697632,381.676575 
	C366.606689,371.670837 363.902252,360.396362 362.724518,348.473236 
	C361.455292,335.623657 363.413818,323.272766 367.644379,311.179474 
	C368.136017,309.774048 368.546783,308.302948 368.719635,306.829956 
	C369.471924,300.419861 365.478302,297.416962 359.449127,299.819977 
	C354.491028,301.796051 350.710419,305.231384 347.648285,309.523224 
	C346.636597,310.941162 345.945435,312.474060 346.880768,314.170868 
	C348.431488,316.984039 347.729401,320.027161 347.982086,322.984375 
	C348.401245,327.889587 346.272552,329.354340 341.123627,327.805542 
	C339.315369,326.931213 338.180328,326.222382 336.969940,325.682343 
	C326.808044,321.148590 320.085510,313.904419 317.221924,302.825317 
	C315.599304,296.547607 314.643127,290.217773 313.846100,283.326050 
	C305.710754,298.958618 312.072388,315.825073 323.408966,325.522827 
	C324.309998,326.293610 325.518005,327.178436 326.455963,325.995392 
	C328.224457,323.764832 330.041534,325.100250 331.874939,325.570282 
	C334.928314,326.353149 337.971375,327.176239 341.018768,327.982330 
	C342.161896,328.909027 343.304993,329.835693 344.547577,330.843048 
	C343.035522,334.505341 339.378479,333.500916 336.831299,334.814301 
	C336.136963,336.301453 338.168945,336.386292 338.294403,337.500488 
	C338.487732,339.218048 338.408936,340.894714 337.190796,342.187744 
	C335.892365,343.565979 334.351501,342.919586 333.078369,342.114868 
	C323.485840,336.051605 314.318939,329.578156 310.632690,317.997009 
	C310.037048,316.125580 309.757446,314.085754 307.849548,312.192291 
	C306.188354,316.779144 307.705170,320.728912 309.094025,324.592560 
	C310.154541,327.542725 310.884247,330.514191 311.606384,333.559052 
	C313.153900,340.083801 318.526642,343.860199 324.601196,345.456604 
	C330.240265,346.938568 332.047394,350.023590 331.814392,356.141754 
	C318.829163,350.404205 311.315247,340.490845 305.994019,328.349426 
	C307.424042,336.521057 311.247803,343.379028 316.799744,349.735046 
	C316.992798,350.003510 317.014984,349.973419 317.014984,349.973419 
M448.978912,239.441696 
	C448.721069,242.663651 448.463196,245.885605 448.205322,249.107544 
	C445.401855,242.911758 446.563568,236.030121 442.958954,230.339783 
	C439.454529,224.807571 435.341431,219.810837 429.545654,215.075912 
	C429.434692,218.083435 430.737274,219.284592 431.499939,220.667084 
	C436.124817,229.050552 439.931915,237.927795 441.018982,247.344177 
	C443.084747,265.238251 451.000214,280.358002 461.449371,294.384827 
	C475.975372,313.884491 492.253571,332.019135 506.526093,351.727966 
	C507.199219,352.657471 508.089783,353.468201 509.001556,354.176544 
	C510.186371,355.097046 511.510803,356.021576 513.113770,355.402222 
	C514.877808,354.720612 514.692932,353.027679 514.743591,351.557953 
	C514.875366,347.735199 514.666687,343.914673 515.340027,340.098206 
	C516.615356,332.869324 516.050598,326.169403 509.482574,321.272949 
	C508.052734,320.207092 507.109802,318.499420 505.901062,317.123840 
	C494.577698,304.237762 483.596405,291.059357 472.436646,278.038239 
	C469.207458,274.270416 469.063354,270.334229 467.761719,266.417114 
	C468.980865,265.867828 469.456024,266.360901 469.940674,266.785797 
	C477.863342,273.732056 484.350983,281.929596 490.522430,290.402374 
	C491.599701,291.881317 492.641815,294.178894 494.309296,294.161072 
	C501.182068,294.087646 503.944763,298.786377 505.245300,304.027710 
	C507.771332,314.208160 514.079346,317.947083 524.080688,317.609161 
	C527.220337,317.503082 529.158447,316.752045 530.435303,314.038849 
	C531.054626,312.722778 531.693237,311.415802 532.234436,310.289337 
	C534.107544,310.041046 533.593201,312.182617 534.965698,312.312897 
	C537.856934,307.605164 537.834839,301.721985 540.812927,297.310883 
	C542.569397,296.329620 543.143311,298.867401 544.932739,297.958313 
	C551.702515,286.809753 563.476562,279.699707 570.698608,267.735474 
	C571.931946,270.687531 570.513916,271.923309 569.665222,273.212036 
	C562.054199,284.769135 553.372986,295.517212 544.715271,306.292328 
	C540.477356,311.566711 534.997925,315.945679 532.067444,322.136932 
	C529.797791,326.932007 528.301208,332.098633 525.712646,336.780792 
	C523.176758,341.367828 522.788391,346.316650 523.585693,351.341614 
	C524.319397,355.966095 526.454163,356.713898 529.876648,353.584534 
	C533.935730,349.873169 537.639221,345.821533 540.943054,341.392181 
	C552.399353,326.032806 563.525452,310.437134 573.817261,294.276581 
	C579.897644,284.729004 587.404297,275.926178 591.717407,265.450714 
	C596.426636,254.013229 602.652466,243.389389 607.755066,232.191666 
	C608.310913,230.971802 609.439392,229.851791 609.040100,227.925735 
	C602.956665,233.215042 596.735046,237.851486 592.968201,245.030197 
	C593.669434,239.420776 595.199402,234.289932 598.456238,229.807846 
	C604.141418,221.983902 610.456177,214.676559 616.821289,207.406433 
	C618.618164,205.354080 620.976990,203.536880 621.125061,200.306305 
	C556.364075,182.143463 491.643433,179.410477 426.056946,197.113205 
	C428.049866,202.180161 431.246124,204.755203 433.577454,207.942490 
	C440.423309,217.301727 448.699127,225.926941 448.978912,239.441696 
M627.583252,467.809265 
	C629.279175,470.968201 626.814270,470.277649 625.366516,470.017273 
	C621.607056,469.341156 617.813538,468.692749 614.164795,467.596588 
	C605.712891,465.057312 597.405701,466.322540 590.796326,471.325684 
	C581.989380,477.992310 571.539856,482.209839 563.707642,490.265991 
	C557.914368,496.224976 551.273010,501.392548 546.630920,508.407318 
	C543.696594,512.841370 542.964417,517.476440 546.269775,522.274414 
	C560.549377,516.722839 572.364197,508.389954 580.696350,494.831146 
	C582.131958,498.290558 579.036316,500.177216 580.738220,503.113312 
	C586.125244,502.144379 589.179626,497.699768 592.689819,494.258484 
	C595.780334,491.228668 597.896912,487.172394 603.224731,487.765106 
	C604.209595,487.874664 605.602173,487.131134 606.324768,486.340820 
	C611.985657,480.149597 619.889038,478.529327 627.283447,475.893188 
	C629.890320,474.963806 632.424988,475.218872 634.965942,476.621094 
	C638.684021,478.672943 642.463318,478.262634 646.256836,476.559235 
	C645.913879,472.589691 642.397156,471.885254 640.117493,469.625519 
	C642.976562,467.902771 645.523254,467.360229 648.392700,468.258667 
	C650.295105,468.854309 652.243713,469.309998 654.185364,469.770264 
	C655.324463,470.040344 656.568115,470.346222 657.186829,468.886627 
	C657.806335,467.425232 656.657593,466.843018 655.741577,466.117676 
	C654.500732,465.135162 652.602417,464.907501 651.917847,462.560822 
	C657.642578,463.390198 662.956055,466.363190 669.472656,464.344910 
	C665.455627,461.466461 660.961853,460.713989 657.748779,457.476074 
	C660.774597,455.839294 664.321838,456.746490 667.716675,453.472748 
	C656.449768,451.647461 648.960571,444.083923 639.199280,437.784393 
	C641.192932,445.472015 644.828369,450.549683 646.778748,456.440247 
	C638.323364,450.642242 636.338318,439.873566 628.599182,433.094269 
	C628.191711,438.171967 632.194214,441.853851 631.966003,446.453857 
	C630.366577,447.056427 629.499573,446.192108 628.699097,445.374634 
	C624.388794,440.972473 620.142639,436.510345 615.322693,432.637665 
	C613.850037,431.454468 613.173706,429.675598 612.637329,427.917084 
	C611.722290,424.917175 612.847961,423.277679 616.034546,423.636780 
	C622.141174,424.324951 628.267639,424.964478 634.309570,426.049194 
	C637.711121,426.659882 641.105042,428.349945 643.075195,431.173584 
	C649.873596,440.917328 659.275574,446.814728 670.338989,450.230133 
	C673.645996,451.250977 677.354309,451.561035 680.699158,449.578064 
	C680.142029,447.898224 678.934937,447.699158 677.825317,447.443512 
	C676.213501,447.072083 674.214600,447.040802 674.325134,444.744080 
	C674.423401,442.701721 676.349731,442.349548 677.885559,441.750671 
	C679.435547,441.146240 681.298401,441.167633 682.734070,439.647339 
	C677.877747,438.250031 673.487976,436.541748 668.940674,435.802399 
	C664.283203,435.045166 659.965576,432.474060 654.834961,433.753876 
	C651.637634,434.551422 648.067017,430.612640 647.569214,426.816345 
	C648.575378,425.245392 650.944092,426.544800 651.883362,424.730225 
	C651.315063,422.780518 650.749817,420.841309 650.095459,418.596313 
	C657.484192,421.084076 659.408508,419.994171 662.543823,412.417267 
	C664.162415,408.505798 664.931702,404.270477 668.725586,401.315094 
	C671.217529,399.373901 669.753662,396.359070 667.544128,394.970428 
	C664.717102,393.193726 661.442322,392.164398 658.402222,395.096985 
	C653.532471,399.794495 648.083557,403.681793 641.687134,405.999542 
	C638.733093,407.070007 636.689880,408.712250 636.480652,412.616882 
	C630.247925,406.803894 626.232300,411.643341 621.774597,414.506836 
	C619.981567,413.978210 618.180481,411.685669 616.345276,412.991974 
	C609.881775,417.592957 603.752380,413.746582 597.533508,412.634644 
	C594.018677,412.006195 590.713135,411.545990 588.760864,415.319244 
	C586.061584,414.005768 584.699463,409.747101 582.077881,411.077759 
	C577.437256,413.433319 576.268982,410.455658 574.446045,407.693573 
	C573.736328,406.618225 572.972839,405.355591 570.697815,406.288788 
	C571.978516,415.925934 574.586914,425.602509 574.206177,435.522400 
	C573.826477,445.415253 568.378723,454.501740 569.201843,464.730316 
	C571.150024,460.342041 575.573059,457.413239 575.697815,452.143005 
	C575.806458,447.556519 575.150330,442.810028 577.115356,437.885590 
	C580.205139,441.595367 579.408020,446.104736 582.002380,449.223480 
	C584.570862,447.514282 583.295593,444.175995 585.539307,442.654572 
	C587.862122,445.518860 587.279907,450.038818 591.217224,452.416077 
	C593.302612,445.923340 588.852051,440.491547 589.492676,434.505402 
	C591.970520,435.409698 590.965881,438.660370 593.633484,439.720337 
	C596.194458,432.717590 591.147034,425.984680 592.786011,419.109222 
	C594.814209,419.498840 595.226929,421.065765 595.807617,422.384094 
	C597.901794,427.139069 597.376099,432.191162 597.256104,437.164337 
	C597.059631,445.307404 606.778809,458.709991 614.644348,460.918579 
	C615.255920,461.090271 616.076294,461.352966 616.534241,461.097565 
	C618.962219,459.743561 620.241760,461.630798 621.735046,462.820892 
	C623.555847,464.271973 625.297546,465.822388 627.583252,467.809265 
M374.240265,347.276398 
	C374.992096,359.774750 378.954254,371.028748 387.177490,380.627960 
	C402.304871,398.286530 423.139557,406.301056 445.635162,396.300568 
	C452.530365,393.235291 459.090973,387.730621 460.691071,383.430389 
	C438.666748,403.674835 415.064575,398.660919 400.615326,389.306030 
	C385.315735,379.400604 374.286926,357.893066 377.807068,344.843201 
	C379.216644,345.675201 378.857544,347.158936 379.125580,348.385468 
	C386.080322,380.210602 406.568390,394.986176 440.092316,390.523865 
	C446.635376,389.652954 451.862915,386.127747 456.445190,381.563019 
	C459.460602,378.559204 459.308258,375.495392 456.717133,372.248993 
	C452.167389,366.548706 447.258545,365.442993 440.030334,368.646790 
	C430.291992,372.963226 420.778656,371.119965 414.142822,363.631012 
	C406.799866,355.344055 404.502747,342.279968 409.200836,334.384430 
	C411.465393,330.578644 411.610565,327.567169 407.938843,324.379913 
	C402.789642,319.910095 398.047150,314.972870 393.110291,310.256927 
	C387.963898,305.340820 386.959167,305.343048 383.187134,311.597229 
	C376.764130,322.246857 373.558655,333.815063 374.240265,347.276398 
M664.606506,340.185822 
	C664.113708,337.786865 662.907227,335.651550 663.293701,332.933594 
	C664.362122,325.419373 661.591309,318.880890 657.275391,312.898865 
	C655.394348,310.291718 653.431946,309.685883 650.653381,312.046051 
	C646.342285,315.708069 641.774109,319.071777 637.260010,322.489441 
	C630.923584,327.286835 630.881714,327.537506 634.836182,334.650787 
	C637.798584,339.979401 640.719055,344.571503 638.308716,351.858276 
	C631.792725,371.557007 613.353455,377.693726 597.017883,364.595184 
	C592.644531,361.088470 587.676819,362.181763 582.866699,367.709503 
	C578.904419,372.262909 579.246704,375.409637 583.650085,379.704590 
	C593.029968,388.853485 604.382935,390.833527 617.087830,391.065216 
	C639.863342,391.480591 654.502258,377.898438 662.154785,360.163300 
	C662.815796,358.631317 662.932312,356.542847 666.651855,355.914978 
	C663.769836,370.419373 655.699524,380.406433 644.895508,388.466919 
	C634.512512,396.213379 622.555115,398.508575 609.851929,397.224487 
	C597.018982,395.927277 587.157410,388.976410 578.431396,379.980835 
	C591.471252,400.616882 620.206055,406.661285 642.063354,393.533905 
	C667.099121,378.497589 674.115295,348.709808 667.336182,330.463287 
	C667.756226,337.642548 668.909851,344.302490 667.143616,351.913452 
	C663.923950,347.940277 665.371155,344.289001 664.606506,340.185822 
M523.083923,418.374390 
	C527.806763,424.189819 532.484070,430.043121 537.266418,435.809174 
	C541.334717,440.714294 542.265625,446.066620 540.403564,452.152954 
	C534.266052,472.213928 527.518677,492.070709 520.494446,511.832733 
	C519.667969,514.158020 519.803894,517.078918 517.276550,519.009094 
	C516.741333,518.204224 516.219299,517.716736 516.055786,517.129517 
	C512.518188,504.421143 506.643616,492.576599 502.418945,480.117920 
	C498.428284,468.349213 495.422058,456.483246 496.875580,443.918152 
	C497.171570,441.359406 496.921478,438.593658 499.498199,436.772400 
	C505.119568,432.799133 509.315186,427.382965 513.689880,422.195557 
	C515.063293,420.567017 517.821594,418.138794 515.856140,416.224640 
	C513.208496,413.646118 510.880646,410.184875 506.233887,410.046051 
	C501.027771,409.890533 499.571320,412.260345 499.901764,416.946411 
	C500.082428,419.508179 500.165985,422.265289 497.151672,424.402252 
	C493.398987,417.951080 494.520477,409.994873 489.548706,403.065643 
	C488.434082,410.207001 492.803802,418.279572 483.547882,421.293304 
	C480.986664,420.291077 481.791229,416.914154 479.145142,414.698212 
	C478.979980,432.109070 471.856354,448.267700 477.372009,465.072632 
	C478.605225,464.098389 477.164734,462.285522 478.917633,461.446777 
	C480.986664,463.562714 480.044922,467.772919 482.022705,468.894257 
	C487.402649,471.944611 486.910736,477.537781 488.951904,481.986725 
	C490.277740,484.876434 490.466553,488.326813 493.176117,490.850037 
	C495.242096,486.695160 491.229858,482.596588 494.169647,478.103973 
	C501.745087,495.384949 509.032074,512.007812 516.319031,528.630676 
	C516.901978,528.689880 517.484924,528.749146 518.067871,528.808350 
	C521.361877,519.287170 525.601501,510.220642 530.031311,501.245972 
	C534.465454,492.262665 536.258667,482.348694 539.075745,472.672882 
	C541.788696,474.034729 540.967773,476.319855 542.055664,477.897827 
	C551.904785,458.994873 556.574097,414.523987 549.482788,404.764008 
	C548.581177,408.817108 547.764526,412.488159 546.964417,416.084839 
	C545.448425,416.338257 546.051697,414.184326 544.697815,414.499725 
	C542.964600,416.812775 544.183228,420.379974 541.284485,422.675995 
	C538.510193,417.435608 537.915344,412.077759 537.949097,406.188110 
	C534.557739,409.650848 529.245605,408.216003 526.465332,412.150269 
	C525.514099,413.496338 524.149292,413.709808 522.572632,412.511078 
	C520.360291,410.829010 518.478455,411.485291 516.815918,413.845245 
	C519.009949,415.227661 521.735596,415.237152 523.083923,418.374390 
M712.076721,414.606903 
	C713.584595,413.214539 715.930786,412.515411 716.072815,409.931549 
	C713.756409,408.178802 710.796936,411.870087 708.623535,408.835449 
	C709.353210,405.619110 714.038330,406.515686 714.762695,403.575317 
	C713.795105,401.657379 711.544800,403.384583 710.751892,401.373688 
	C714.712585,398.134613 720.356140,396.683167 723.000732,391.549622 
	C720.642212,390.086761 718.059937,392.367401 716.878052,389.009308 
	C721.760498,387.503296 728.179260,387.356323 726.870117,379.284912 
	C726.581787,377.507172 729.999573,376.422028 730.005676,373.935486 
	C728.416016,372.446564 726.421326,375.111664 724.607971,373.075226 
	C729.332947,366.026703 736.658020,360.244995 737.388794,350.248169 
	C735.612366,352.108490 735.353516,354.456512 732.913025,355.092072 
	C730.182861,351.298492 727.089111,351.170349 723.741211,354.440826 
	C722.196167,355.950134 720.412720,357.233459 718.983826,358.838654 
	C717.612061,360.379639 715.115479,361.404877 715.536133,363.971558 
	C715.960144,366.559296 719.138550,364.895111 720.730591,367.057922 
	C713.691467,371.320374 713.937500,382.861938 703.178650,382.945251 
	C703.826355,386.745880 707.684021,387.519196 708.502502,390.469482 
	C705.376587,395.725586 702.743103,401.286957 696.878235,403.183807 
	C696.628540,405.488403 698.696533,406.390778 697.756531,408.555359 
	C693.858459,410.832550 689.356628,412.881256 685.531067,416.127045 
	C683.755188,417.633759 681.694336,418.297852 680.464417,420.843231 
	C678.909912,424.060272 672.176025,424.697784 667.179565,422.930908 
	C660.278931,420.490662 660.278931,420.490631 658.038513,423.810455 
	C669.716980,434.221924 689.159729,438.642914 696.820374,432.576508 
	C695.664368,430.336395 691.804016,431.428680 691.348816,428.372131 
	C692.083252,427.133636 693.291504,426.991730 694.349487,426.535645 
	C697.974976,424.972595 702.440125,424.141479 704.906372,421.477234 
	C707.006226,419.208801 709.029968,416.921509 712.076721,414.606903 
M511.758667,475.720856 
	C512.292236,477.983795 512.998474,480.222351 513.321594,482.514954 
	C513.904968,486.653595 516.006531,489.537109 520.234253,489.595245 
	C524.212463,489.649963 524.621643,485.979034 525.883972,483.040161 
	C528.631653,476.643036 528.888794,469.848938 529.773499,463.151367 
	C530.554077,457.241699 532.813965,450.796570 531.280457,445.496429 
	C529.348694,438.819489 524.086548,433.170776 518.878662,427.331360 
	C514.623901,433.530304 510.779633,439.105164 506.972717,444.705383 
	C506.394135,445.556549 506.220825,446.571869 506.641876,447.565033 
	C510.346832,456.304016 509.082550,465.936157 511.758667,475.720856 
M545.367371,485.588959 
	C545.089478,487.523560 544.811584,489.458160 544.533691,491.392761 
	C546.497620,489.642578 547.560852,487.491516 548.678772,485.369293 
	C549.272156,484.242889 549.586365,482.304871 551.135498,482.652740 
	C553.909729,483.275726 554.020264,481.378448 554.769958,479.746765 
	C555.948059,477.182556 557.240173,474.663300 558.616211,472.198792 
	C568.283875,454.884216 570.994324,436.560486 566.601257,417.221008 
	C566.184937,415.388245 565.782959,413.258698 562.995972,413.026947 
	C560.458862,417.397247 565.026245,421.997498 562.675293,426.306641 
	C559.976746,425.114685 560.297546,421.903015 558.279541,420.376862 
	C557.042969,422.024719 557.203247,423.560211 557.416260,425.008362 
	C558.252441,430.694489 557.197754,436.270081 556.574890,441.873169 
	C554.925964,456.705994 547.176086,469.962860 545.367371,485.588959 
M475.422791,167.668228 
	C487.214417,167.022141 498.999268,166.043243 510.799133,165.804398 
	C530.762939,165.400345 550.687012,166.014740 570.560913,168.499390 
	C585.733459,170.396271 600.905273,172.273056 616.027344,174.529373 
	C623.561401,175.653519 631.063599,176.991409 638.580200,178.232605 
	C559.186890,158.993759 479.727112,157.179489 400.471405,178.494049 
	C400.839722,179.257080 401.415283,179.948166 403.215942,179.579971 
	C409.719025,178.250183 416.279816,177.200089 422.823792,176.073349 
	C440.019104,173.112671 456.987061,168.752975 475.422791,167.668228 
M553.610962,174.783020 
	C564.986938,176.294739 576.361572,177.840576 587.548035,180.455933 
	C598.624268,183.045517 609.665283,185.785599 620.721802,188.459671 
	C551.131287,163.481003 481.430939,166.406418 411.518463,188.334686 
	C414.320923,189.269394 417.087524,188.941956 419.749115,188.326797 
	C425.583740,186.978271 431.358704,185.373978 437.176636,183.950180 
	C458.203735,178.804352 479.389069,174.635681 500.978210,172.505493 
	C518.372620,170.789200 535.537476,172.472885 553.610962,174.783020 
M503.662201,380.857208 
	C500.708801,378.954559 498.514069,375.720764 494.552002,375.371094 
	C494.447754,375.946350 494.238922,376.346375 494.359985,376.538574 
	C500.331360,386.018341 507.766296,394.284485 515.700684,402.127106 
	C517.827209,404.229034 519.851562,403.634491 521.750488,401.685883 
	C526.043152,397.280853 530.503784,393.027649 534.609436,388.455322 
	C538.966492,383.603027 542.992310,378.453186 547.619202,372.883820 
	C544.518921,372.820648 543.206421,374.240784 541.830566,375.294403 
	C535.366150,380.244720 528.883606,385.182831 522.635071,390.397888 
	C519.980164,392.613647 518.045227,392.984955 515.365051,390.500275 
	C511.837250,387.229797 507.959259,384.337067 503.662201,380.857208 
M526.950745,365.465729 
	C524.262390,367.307434 522.971741,370.857727 519.443542,371.744781 
	C511.975983,364.906525 504.506927,358.222656 496.133179,352.564697 
	C495.679932,353.704651 495.666229,354.350159 495.853058,354.931122 
	C499.319031,365.710388 507.747040,372.218903 516.294495,378.618225 
	C517.917786,379.833527 519.374329,379.295746 520.824219,378.191528 
	C529.845215,371.321228 538.435669,363.992371 545.402466,354.959656 
	C546.316467,353.774658 547.923645,352.555054 546.095581,350.255707 
	C539.415100,354.603577 533.485596,359.845642 526.950745,365.465729 
M738.531433,311.692780 
	C738.065369,310.229218 736.931335,308.750793 735.989807,310.770599 
	C733.479675,316.155396 730.974365,321.662048 729.578064,327.391022 
	C728.969055,329.889648 728.259521,331.470673 726.376953,332.975189 
	C720.842407,337.398438 714.335693,340.328522 707.691956,344.875610 
	C715.390930,346.269653 720.966614,342.754333 727.409912,340.129211 
	C725.739990,343.977264 721.537903,344.188293 719.772949,347.808533 
	C725.296936,347.499268 728.401672,344.602997 731.020630,341.156097 
	C737.475342,332.660858 739.633606,322.967041 738.531433,311.692780 
M732.165161,287.707031 
	C729.655212,288.096985 730.516113,290.173584 730.357178,291.586121 
	C728.933716,304.242950 723.868958,314.801788 713.113831,322.200745 
	C711.594238,323.246124 709.774292,324.083923 708.545410,327.001953 
	C712.810242,324.493713 716.749939,327.198212 720.495056,324.394226 
	C733.034790,315.005646 736.064270,302.763306 732.165161,287.707031 
M417.762024,605.256836 
	C418.533051,606.662109 418.767792,608.493286 420.679199,608.998291 
	C425.666992,604.144104 426.021210,572.372314 421.195923,563.280945 
	C420.976471,565.299500 420.656342,567.273499 420.563416,569.258179 
	C420.011078,581.055847 417.263153,592.662415 417.762024,605.256836 
M461.314178,563.248352 
	C468.661926,575.158752 473.790833,588.203308 480.335083,600.525146 
	C476.458649,579.783142 466.307526,562.237366 453.022125,546.286377 
	C454.302521,552.414368 458.217133,557.217163 461.314178,563.248352 
M322.555481,287.921783 
	C321.706360,283.630890 320.857208,279.339966 319.735718,273.672882 
	C317.414520,289.523163 321.237854,308.466919 327.345337,312.796844 
	C324.129364,304.938354 324.210876,296.707764 322.555481,287.921783 
M719.951782,296.889893 
	C723.949768,288.638489 724.841370,278.831635 721.934998,274.970642 
	C720.570557,275.449341 720.350891,276.663696 720.414978,277.798431 
	C720.721558,283.230316 718.740173,288.251556 717.723267,293.443237 
	C717.435242,294.913849 716.822083,296.460266 717.524719,297.833313 
	C718.306335,299.360687 719.040466,298.208252 719.951782,296.889893 
M632.294373,341.151642 
	C631.387329,339.573944 630.655823,337.857513 629.539673,336.445099 
	C626.443665,332.527374 624.643372,332.551208 620.406677,336.659851 
	C623.233093,339.160919 625.878723,341.864563 628.898254,344.051849 
	C631.061096,345.618439 632.733704,344.912720 632.294373,341.151642 
M412.152740,343.067719 
	C416.857941,344.047058 418.507080,339.309418 422.890442,337.987213 
	C419.724274,336.358612 418.307648,332.265411 414.960358,334.516022 
	C412.531128,336.149445 410.320160,338.878448 412.152740,343.067719 
z"/>
<path fill="#000000" opacity="1.000000" stroke="none" 
	d="
M366.550293,591.330688 
	C371.892242,604.622742 386.774841,606.973511 395.576935,596.320618 
	C397.329193,594.199951 398.691223,591.577820 402.147034,590.425354 
	C405.055237,596.004395 405.550598,602.208069 406.927521,608.081665 
	C408.767334,615.929626 408.624054,623.890991 407.342926,631.900391 
	C405.771393,641.725220 399.840881,648.752014 393.221893,655.456238 
	C390.822815,657.886292 388.801727,656.915649 386.862549,654.816528 
	C372.371826,639.130920 359.858368,622.243774 354.149658,601.195435 
	C353.768707,599.790894 353.724548,598.174255 352.218170,597.159363 
	C350.465027,598.093750 350.662994,599.895142 350.468628,601.433777 
	C347.505951,624.882812 337.487854,645.256836 323.422333,663.903809 
	C320.644989,667.585693 318.260071,667.277283 315.517029,663.889709 
	C312.373108,660.007080 309.029724,656.285278 305.747284,652.515991 
	C304.348450,650.909668 302.692657,649.665955 300.549438,651.058716 
	C298.353027,652.486023 298.879059,654.691650 299.904022,656.405762 
	C304.634033,664.315857 310.394562,671.416321 317.445557,677.390991 
	C320.012329,679.565979 322.117554,678.084045 323.884460,676.046875 
	C336.001709,662.076843 344.202698,646.069824 348.708893,628.149841 
	C349.338867,625.644470 349.192505,622.850952 351.551666,620.412415 
	C356.571991,627.438965 359.955688,635.030640 363.206329,642.605896 
	C364.909790,646.575623 367.112579,649.928162 370.251099,652.702393 
	C374.990417,656.891602 379.936096,660.848145 384.654633,665.059814 
	C387.984039,668.031555 390.907990,668.234558 394.144867,664.893799 
	C396.305054,662.664185 398.802094,660.727539 402.181915,659.188965 
	C403.739380,678.673462 397.219482,695.773193 389.840973,713.157043 
	C379.048157,699.477783 366.750000,686.854431 365.550568,667.850647 
	C365.099548,667.969727 364.648560,668.088867 364.197540,668.207947 
	C363.308899,671.324951 362.417969,674.441284 361.532013,677.559082 
	C356.465912,695.386475 345.389587,709.114441 331.679291,720.967163 
	C327.822815,724.301147 326.848785,723.741516 324.549347,719.022705 
	C317.178314,703.895935 310.646057,688.397339 303.894379,672.994995 
	C303.318634,671.681580 302.497162,670.475891 301.994415,669.583374 
	C297.375366,684.024109 292.763428,698.442627 288.151489,712.861084 
	C297.272644,707.164368 298.265503,696.747742 302.526733,687.170593 
	C306.638458,693.785767 309.086395,700.365173 311.681335,706.897522 
	C314.752197,714.627747 318.090210,722.251404 321.232361,729.953918 
	C322.814728,733.832764 324.873596,734.152283 328.569580,732.162903 
	C341.746674,725.070068 352.329742,715.137512 361.532867,703.518372 
	C363.552338,700.968689 365.303101,698.072571 368.337067,696.303223 
	C382.796570,714.385864 390.950928,734.384583 389.436096,757.899963 
	C391.238373,745.488220 395.995056,733.781006 396.135620,719.832397 
	C405.241852,730.706299 410.936798,742.511902 418.610352,753.190918 
	C423.555115,749.926147 425.399780,744.422485 429.449982,740.097168 
	C433.425415,747.145813 434.204895,754.584167 435.270508,761.856506 
	C438.737732,785.517883 439.027313,809.322693 437.144379,833.103088 
	C435.924377,848.511169 433.704895,863.840088 431.906464,879.201416 
	C431.875824,879.462891 431.506409,879.684814 430.736359,880.560913 
	C424.239929,872.556763 417.684631,864.759033 411.445770,856.715942 
	C405.012970,848.422668 399.198181,839.681641 393.344177,830.962830 
	C387.690674,822.542664 384.303558,812.762146 378.344086,804.539124 
	C375.268250,806.199646 376.488861,809.226685 374.159210,810.701782 
	C369.213898,809.649109 363.632233,810.452026 358.103851,806.920776 
	C358.737701,810.082031 360.388367,811.447327 361.743164,812.980957 
	C367.035950,818.972290 372.353607,824.941772 377.627289,830.949890 
	C379.189667,832.729919 380.233765,834.701843 380.298798,837.227112 
	C380.547485,846.882385 381.131500,856.532104 381.230621,866.187561 
	C381.478638,890.342041 381.677155,914.494446 383.217621,938.612610 
	C383.278259,939.561707 383.608276,940.599548 382.198761,942.036804 
	C354.180847,909.809631 329.828979,875.101013 307.679474,838.701416 
	C310.673065,847.838379 314.421814,856.684448 318.601868,865.371887 
	C322.939850,874.387512 327.643890,883.194702 332.897919,891.710693 
	C337.994995,899.972290 343.944275,907.651001 349.487427,915.657349 
	C345.053436,913.919556 342.353973,910.296448 339.674591,906.910645 
	C325.888275,889.489319 309.114288,874.817627 294.822449,857.869202 
	C292.955414,855.655090 291.114075,853.220276 287.265991,855.348206 
	C284.749817,856.739624 283.617218,853.724365 282.452026,852.086304 
	C272.955048,838.735229 265.512054,824.212708 258.211426,809.594604 
	C247.047745,787.241516 238.772995,763.985474 235.198090,739.155334 
	C234.735580,735.942810 235.356461,732.469360 233.198715,729.153687 
	C231.774811,731.080688 232.173279,733.125671 231.929565,734.991516 
	C231.696671,736.774475 231.565903,738.570679 231.374008,740.526611 
	C217.283325,729.801331 215.152069,642.856018 228.722839,617.980286 
	C229.919312,622.633362 230.929138,626.475098 231.888901,630.329224 
	C232.370865,632.264587 232.589294,634.280884 233.222992,636.160706 
	C236.415314,645.630859 240.662064,644.872314 248.231216,639.594910 
	C250.684982,637.883972 252.661301,634.891968 253.834961,632.062439 
	C256.484314,625.675293 261.555023,622.206299 267.350250,619.421021 
	C271.905518,617.231689 275.154907,614.274780 276.587646,609.071594 
	C278.433838,602.367004 283.327576,597.275818 287.205261,591.676086 
	C288.748810,589.447205 290.516052,587.448792 287.591583,584.819519 
	C286.823425,584.128967 286.913788,582.327454 286.863464,581.026306 
	C286.753967,578.197144 286.877808,575.359314 286.782623,572.529236 
	C286.417816,561.686096 291.865509,554.885010 302.714783,552.783508 
	C305.894318,552.167542 306.041229,554.517883 305.783081,556.499695 
	C305.129242,561.518677 303.172943,566.116699 300.475006,570.385925 
	C299.502319,571.925110 298.415009,573.391724 297.278900,575.037964 
	C300.188171,576.927551 299.171112,579.577454 299.004608,582.122437 
	C297.957245,598.131836 300.561432,613.591370 306.257324,628.543640 
	C307.846039,632.714172 310.583771,631.651123 313.486267,629.912659 
	C323.484314,623.924072 331.929626,616.212280 338.907959,606.922241 
	C345.614532,597.994019 351.757416,588.685730 357.150543,578.891418 
	C358.258606,576.879150 359.632507,575.013367 361.717621,571.791870 
	C363.496674,579.015137 364.967133,584.985535 366.550293,591.330688 
M318.051727,746.376465 
	C315.021057,741.029114 312.957245,735.248047 310.859711,729.309021 
	C308.676147,730.729492 308.293427,732.803284 307.450348,734.525391 
	C304.518250,740.514832 301.531769,746.479675 297.090210,751.514404 
	C294.671875,754.255737 292.704681,756.986450 296.132843,760.037781 
	C299.402191,762.947815 302.232819,760.870422 304.920898,758.599670 
	C307.286224,756.601685 308.445007,753.426086 311.523773,751.567017 
	C312.441437,753.545593 313.240692,755.156921 313.946075,756.808289 
	C317.876251,766.009521 322.659424,774.757141 327.991577,783.209167 
	C328.927185,784.692139 329.588562,786.603394 332.024658,786.258423 
	C337.665619,785.459412 340.149048,779.511780 336.730469,774.934509 
	C330.060211,766.003479 323.349182,757.097839 318.051727,746.376465 
M384.056976,778.417114 
	C381.260559,784.138245 377.418213,789.540161 378.821716,796.555725 
	C382.889404,787.773621 386.530060,778.857727 387.381531,769.022339 
	C386.396881,771.932556 385.412231,774.842834 384.056976,778.417114 
z"/>
<path fill="#000000" opacity="1.000000" stroke="none" 
	d="
M581.643921,720.701660 
	C588.941895,696.500366 593.906860,672.323486 592.970337,647.506836 
	C594.389404,647.023254 595.020142,647.397766 595.101868,648.092651 
	C596.299744,658.275024 600.218201,667.710266 603.303223,677.347961 
	C606.590454,687.617310 604.775330,697.883728 603.876953,708.074036 
	C598.878479,764.768860 575.527405,814.094238 541.969604,859.055176 
	C522.326782,885.372803 497.983765,906.737976 470.087128,924.043884 
	C468.736298,924.881836 467.454712,926.070557 465.827362,925.916809 
	C518.551392,865.661011 555.877686,796.674194 581.643921,720.701660 
z"/>
<path fill="#000000" opacity="1.000000" stroke="none" 
	d="
M542.024902,911.046875 
	C557.488647,890.252625 570.161255,868.116333 582.541748,845.846375 
	C600.930115,812.769348 617.534851,778.827759 629.940125,742.966309 
	C635.810425,725.996094 639.168274,708.700562 638.982666,690.620178 
	C638.746643,667.619324 638.189697,644.691772 633.821777,622.017090 
	C633.560181,620.659119 632.845947,619.165833 633.748718,617.624878 
	C636.105591,618.330139 636.290649,620.570740 637.049744,622.279480 
	C648.439331,647.918701 650.071533,674.698792 645.882751,702.027039 
	C643.554138,717.218872 642.858704,732.521057 642.486389,747.806274 
	C641.634399,782.789673 630.270569,814.303223 612.239990,843.798828 
	C592.142029,876.676453 566.288818,904.117004 534.608643,926.057373 
	C533.381958,926.906860 532.057739,927.628174 530.728638,928.311218 
	C530.199585,928.583069 529.533569,928.588135 527.321533,929.051697 
	C532.746094,922.419250 537.280029,916.875793 542.024902,911.046875 
z"/>
<path fill="#000000" opacity="1.000000" stroke="none" 
	d="
M680.925537,790.722046 
	C671.545532,820.434143 659.310059,848.119080 637.267578,870.559814 
	C637.080505,862.421692 638.655518,854.690002 640.457214,847.032288 
	C644.652649,829.200378 651.162231,812.050781 656.214966,794.464966 
	C664.072266,767.117798 671.694641,739.709778 674.420776,711.279114 
	C676.635864,688.178345 676.058228,665.089539 672.219666,642.144592 
	C671.950073,640.533020 671.220093,638.937866 672.646240,636.709534 
	C693.834106,687.278198 696.412720,738.294250 680.925537,790.722046 
z"/>
<path fill="#000000" opacity="1.000000" stroke="none" 
	d="
M472.526703,761.600769 
	C474.552368,779.265747 474.985718,796.544250 474.737000,813.853699 
	C474.658508,819.316040 474.724731,824.780518 474.724731,830.051819 
	C473.222717,830.722534 472.780273,829.952209 472.459290,829.208923 
	C464.658234,811.144714 453.736603,794.704224 445.329865,776.943481 
	C440.058319,765.806519 436.992340,754.194702 435.863678,742.003357 
	C435.213531,734.980652 437.886230,728.536865 439.849152,722.068970 
	C444.062958,708.184143 444.814575,693.977417 444.839142,679.643433 
	C444.844788,676.360901 444.729828,673.044495 446.744385,669.156677 
	C461.263428,698.651489 469.457458,729.160095 472.526703,761.600769 
z"/>
<path fill="#000000" opacity="1.000000" stroke="none" 
	d="
M720.774048,785.586548 
	C714.753662,804.354187 707.223633,821.928101 695.577698,837.448669 
	C717.032349,760.753967 715.882446,683.616028 701.480164,606.054626 
	C729.674988,663.451721 739.546509,722.780029 720.774048,785.586548 
z"/>
<path fill="#000000" opacity="1.000000" stroke="none" 
	d="
M434.151611,713.918091 
	C431.551392,723.333130 427.420349,731.564758 422.353821,739.623596 
	C418.782837,738.160583 417.512177,735.077148 415.436676,732.841248 
	C414.305634,731.622742 413.417633,730.164307 412.219971,729.024292 
	C404.229462,721.419189 401.676361,712.728882 404.242981,701.616699 
	C406.242188,692.960876 405.981079,683.773193 406.593109,674.812927 
	C406.777618,672.111755 407.230316,669.479797 408.275848,667.044800 
	C412.027161,658.308411 415.034027,649.325073 417.627747,640.190491 
	C417.982056,638.942810 418.309937,637.623047 419.527832,636.922363 
	C436.463684,660.161499 442.848938,685.409485 434.151611,713.918091 
z"/>
<path fill="#000000" opacity="1.000000" stroke="none" 
	d="
M746.818909,735.042847 
	C743.088257,682.848694 730.886047,633.749146 702.328430,589.668701 
	C698.093628,583.132019 693.722778,576.641113 693.924744,568.347046 
	C693.950806,567.277893 693.019470,566.150879 694.109985,565.130615 
	C755.866394,617.082458 762.558228,709.425537 747.396301,750.928894 
	C746.190002,745.186523 747.105591,740.320190 746.818909,735.042847 
z"/>
<path fill="#000000" opacity="1.000000" stroke="none" 
	d="
M682.244324,214.305420 
	C683.622498,213.148727 684.384521,211.687103 686.093323,211.585617 
	C684.848328,220.597610 613.280457,304.202057 601.232544,310.527161 
	C600.921631,307.344635 602.504333,304.950867 603.948120,302.648560 
	C612.213745,289.468079 622.717407,278.055298 632.959229,266.459320 
	C648.723938,248.610199 664.981934,231.216583 682.244324,214.305420 
z"/>
<path fill="#000000" opacity="1.000000" stroke="none" 
	d="
M404.901123,271.085083 
	C387.549133,251.828125 371.936188,231.636261 355.748688,210.591644 
	C370.022003,214.928085 440.186310,297.732391 439.605560,309.909058 
	C426.542419,297.672699 416.556519,283.844879 404.901123,271.085083 
z"/>
<path fill="#000000" opacity="1.000000" stroke="none" 
	d="
M389.259888,590.016235 
	C385.375122,596.170349 382.939667,596.306885 378.960968,590.525024 
	C373.790894,583.011902 371.445404,574.268066 369.085785,565.634827 
	C367.876556,561.210632 377.534668,547.648010 381.910583,546.856689 
	C382.902405,546.677368 383.875763,547.066284 384.851624,548.148376 
	C383.569977,550.811584 385.176392,553.035583 386.182587,555.670288 
	C390.370605,566.636353 395.017090,577.713745 389.259888,590.016235 
z"/>
<path fill="#000000" opacity="1.000000" stroke="none" 
	d="
M282.903625,258.954956 
	C276.609009,245.584152 262.230560,241.123886 253.207870,230.723892 
	C264.783234,236.718582 275.434326,244.230286 286.481171,251.175812 
	C274.095398,237.629807 257.881165,228.823685 244.197830,216.852478 
	C260.120880,225.593307 275.096832,235.768478 290.422150,245.540512 
	C279.000671,232.719971 265.183380,222.686661 251.979523,211.897964 
	C256.999542,213.383041 261.042725,216.463745 265.029816,219.495132 
	C273.514282,225.945877 281.821808,232.630432 290.161499,239.269821 
	C292.513489,241.142319 294.765747,243.215469 297.607819,244.238647 
	C299.526245,244.929352 302.221588,244.226715 302.424622,247.373642 
	C302.610443,250.254303 300.136169,250.678268 298.203278,251.585922 
	C297.571350,253.419998 300.507263,254.872192 298.884552,256.620148 
	C296.847870,258.814026 295.052429,255.512695 292.926636,256.071960 
	C293.171967,258.692566 296.615601,258.881927 297.012665,261.637787 
	C292.509125,260.833008 288.214233,260.065521 283.560059,259.267090 
	C283.200775,259.236145 283.005829,259.045288 282.903625,258.954956 
z"/>
<path fill="#000000" opacity="1.000000" stroke="none" 
	d="
M661.928589,627.782593 
	C657.374329,610.535645 648.623230,595.497131 641.659241,579.690735 
	C639.131287,573.952820 635.525024,568.775330 632.910767,562.633789 
	C644.729797,566.715942 669.772644,601.116821 671.674377,615.167419 
	C666.766968,610.900391 666.286194,604.295227 661.722778,600.305786 
	C663.922119,610.876770 665.063843,621.457336 666.034241,632.378967 
	C662.958984,632.065186 662.960205,629.701416 661.928589,627.782593 
z"/>
<path fill="#000000" opacity="1.000000" stroke="none" 
	d="
M786.207153,295.315918 
	C781.945923,296.734680 777.715637,297.118652 774.364258,299.979889 
	C791.617798,298.129944 809.000366,297.137054 825.479675,290.580383 
	C805.095215,296.673553 787.866028,311.003876 765.846802,312.529327 
	C773.223267,305.325806 784.361694,307.044983 792.385132,301.190613 
	C787.700806,300.460754 783.339722,301.907135 779.035034,303.226593 
	C775.224915,304.394409 771.581116,306.096375 767.831421,307.474030 
	C765.991699,308.149963 763.040833,309.298492 762.629700,307.049622 
	C762.220947,304.813202 760.994080,301.416443 764.594055,299.511017 
	C768.895264,297.234436 773.341858,295.427246 777.987244,294.082764 
	C791.714294,290.109863 805.455994,286.187683 819.391052,282.770905 
	C808.936218,288.143372 797.884460,291.980621 786.207153,295.315918 
z"/>
<path fill="#000000" opacity="1.000000" stroke="none" 
	d="
M210.883301,638.696899 
	C210.987167,627.247498 209.401901,616.141663 212.662079,605.245239 
	C215.107651,605.838379 214.985352,607.615784 215.409531,608.913696 
	C216.616638,612.607056 217.683136,615.526184 222.969025,614.260437 
	C226.590042,613.393188 226.129135,616.695251 225.191055,618.980225 
	C222.161835,626.358765 219.461578,633.842102 217.167557,641.486450 
	C216.237320,644.586304 216.107239,648.040039 213.581146,651.065857 
	C210.594345,647.329956 212.237366,642.885376 210.883301,638.696899 
z"/>
<path fill="#000000" opacity="1.000000" stroke="none" 
	d="
M782.151733,355.825226 
	C797.446716,354.093262 812.317444,352.411682 827.188110,350.730103 
	C812.648804,355.776337 797.619446,358.062531 781.963562,360.364563 
	C784.233459,363.116180 786.762390,362.815002 789.115417,362.869049 
	C801.619324,363.156189 813.969971,360.955292 826.431274,360.530243 
	C827.214966,360.503510 828.000427,360.526794 829.242371,360.526794 
	C825.080933,363.574005 779.011292,369.260468 774.573914,367.424713 
	C775.367371,364.532196 776.275940,361.528534 774.240112,358.663300 
	C776.395447,356.212982 779.327393,356.743439 782.151733,355.825226 
z"/>
<path fill="#000000" opacity="1.000000" stroke="none" 
	d="
M819.378052,415.655396 
	C804.368774,413.171997 789.988037,409.729370 775.649963,406.119385 
	C773.738647,405.638153 770.669250,405.835724 771.436707,402.024963 
	C772.205322,398.208588 774.042725,396.605621 778.007080,397.478790 
	C789.852539,400.087860 801.724365,402.576569 813.579102,405.143768 
	C818.404907,406.188812 823.472900,406.117828 828.036438,408.598633 
	C816.036804,408.515503 804.302429,405.547241 792.291321,405.042908 
	C803.520386,409.344208 814.901184,412.936676 826.661438,415.311401 
	C826.608887,415.763824 826.556335,416.216278 826.503723,416.668701 
	C824.261597,416.368439 822.019470,416.068176 819.378052,415.655396 
z"/>
<path fill="#000000" opacity="1.000000" stroke="none" 
	d="
M254.966370,403.501282 
	C243.813110,406.522369 233.062469,409.808929 221.569565,408.683624 
	C238.556885,406.485382 254.354340,398.061340 272.812103,398.594971 
	C271.832397,399.877106 271.620483,400.362274 271.250214,400.590210 
	C270.699066,400.929443 270.036041,401.087067 268.794159,401.561127 
	C271.129272,401.790375 273.799866,401.194489 273.736389,404.071777 
	C273.686951,406.311768 271.515869,406.192841 269.940094,406.423248 
	C256.585785,408.375793 243.712631,412.289368 230.763672,415.911652 
	C228.578400,416.522919 226.346054,417.389038 222.616760,416.460114 
	C235.122864,411.789886 247.197784,409.268463 258.893250,403.423676 
	C257.158325,403.423676 256.235260,403.423676 254.966370,403.501282 
z"/>
<path fill="#000000" opacity="1.000000" stroke="none" 
	d="
M820.947388,433.624207 
	C822.346008,434.094482 823.443481,434.399872 824.441345,436.548065 
	C817.007935,434.629059 810.388000,432.743469 803.684021,431.230377 
	C793.359131,428.900085 783.015503,426.610901 772.603943,424.722473 
	C766.354065,423.588867 766.269836,423.897217 768.781616,418.164520 
	C769.158264,417.304901 768.239929,416.163544 770.028931,414.895233 
	C777.555786,415.290924 785.027222,417.031464 790.286377,424.158234 
	C790.603088,424.587341 791.435974,424.660004 792.044861,424.845337 
	C801.561829,427.741974 811.081482,430.629852 820.947388,433.624207 
z"/>
<path fill="#000000" opacity="1.000000" stroke="none" 
	d="
M790.038696,333.694946 
	C800.758118,332.007141 810.634644,328.275513 821.188049,327.544556 
	C812.092468,331.420868 802.338379,333.139526 791.552246,336.104156 
	C804.125671,336.658264 815.329834,337.118652 826.535950,335.255249 
	C814.383972,340.799408 801.076233,338.245117 788.494995,340.781189 
	C791.693665,342.787506 794.869873,340.301117 798.088806,341.186615 
	C792.892029,344.666382 776.993042,345.295959 770.730713,342.004974 
	C777.133545,338.847351 784.424072,338.515839 790.038696,333.694946 
z"/>
<path fill="#000000" opacity="1.000000" stroke="none" 
	d="
M768.049194,280.974030 
	C764.555603,280.818298 761.094055,283.148926 757.229431,280.575684 
	C778.429565,270.409210 799.808655,260.813965 821.555237,249.604126 
	C820.445862,253.144577 818.313538,253.581985 816.655396,254.445465 
	C801.333618,262.424713 786.949097,272.151825 770.992065,278.949249 
	C770.091125,279.333038 769.329041,280.042786 768.255737,280.800903 
	C768.009094,281.000977 768.049194,280.974030 768.049194,280.974030 
z"/>
<path fill="#000000" opacity="1.000000" stroke="none" 
	d="
M735.957581,234.117279 
	C737.475464,232.567825 738.993347,231.018402 740.747070,229.247406 
	C755.462402,215.537415 770.643799,202.867249 786.033386,190.442047 
	C787.391785,189.345291 788.523132,187.757751 791.812500,187.700439 
	C772.527893,205.737473 753.113586,222.237350 735.167053,240.753876 
	C734.961426,241.017609 735.001770,240.994522 734.706299,241.066086 
	C733.348755,241.294205 732.190247,242.007385 731.301208,240.474686 
	C731.613037,237.533936 735.647888,237.132950 735.957581,234.117279 
z"/>
<path fill="#000000" opacity="1.000000" stroke="none" 
	d="
M233.691269,288.394745 
	C230.201492,286.844788 227.073898,285.418457 223.946304,283.992126 
	C224.146362,283.538025 224.346420,283.083893 224.546463,282.629761 
	C243.679321,291.026672 265.268280,293.461548 282.366669,306.875305 
	C277.974243,308.622162 274.345612,306.743713 270.919464,305.074646 
	C261.343658,300.409790 251.727463,295.849487 241.908615,291.720795 
	C239.302216,290.624817 236.672470,289.584320 233.691269,288.394745 
z"/>
<path fill="#000000" opacity="1.000000" stroke="none" 
	d="
M228.471344,329.067505 
	C226.899033,328.505615 225.688004,328.036377 224.476959,327.567139 
	C224.532074,327.235260 224.587173,326.903412 224.642273,326.571564 
	C230.321869,327.391235 236.009048,328.162018 241.679291,329.041992 
	C250.366791,330.390167 258.993347,331.980042 267.399811,334.684631 
	C272.831116,336.432098 273.063538,336.550262 271.610992,342.978210 
	C264.549194,343.192535 258.317383,339.984406 251.758011,338.137299 
	C251.839249,337.734467 251.920486,337.331665 252.001709,336.928833 
	C256.924683,338.108337 261.847656,339.287842 266.770630,340.467346 
	C254.526474,335.344269 241.819702,331.784943 228.471344,329.067505 
z"/>
<path fill="#000000" opacity="1.000000" stroke="none" 
	d="
M744.603882,247.588303 
	C759.574280,237.945587 772.685608,226.116455 788.528748,218.430969 
	C772.341125,229.754852 758.707458,244.222549 742.555115,255.450607 
	C740.955444,254.818130 741.133911,252.636597 739.223083,252.770264 
	C739.951477,249.639801 742.668884,249.288589 744.603882,247.588303 
z"/>
<path fill="#000000" opacity="1.000000" stroke="none" 
	d="
M761.558472,268.531677 
	C774.589600,260.570801 788.017456,254.050934 800.331177,245.889954 
	C801.429626,246.972763 801.045837,247.720871 800.538574,248.003372 
	C793.367371,251.997330 788.128296,258.585022 780.562134,262.199860 
	C772.044983,266.268982 764.925232,272.951935 755.859253,276.140045 
	C754.450073,276.635620 752.730347,278.593567 751.536743,276.378296 
	C750.243225,273.977631 752.710327,273.386902 754.225098,272.532166 
	C756.543579,271.223877 758.891907,269.968384 761.558472,268.531677 
z"/>
<path fill="#000000" opacity="1.000000" stroke="none" 
	d="
M827.379150,345.409973 
	C809.402344,348.959229 791.862793,352.460236 772.839966,353.243622 
	C776.602661,348.481903 830.629456,341.438293 840.208557,343.811981 
	C835.277283,344.428894 831.546875,344.895599 827.379150,345.409973 
z"/>
<path fill="#000000" opacity="1.000000" stroke="none" 
	d="
M810.722900,306.767761 
	C799.279236,312.369019 787.184265,315.115906 775.779480,319.737396 
	C772.801575,320.944153 769.333252,322.555725 764.604614,318.687469 
	C782.882202,311.611023 800.656616,307.385284 818.424194,303.068939 
	C816.506287,305.556976 813.588440,305.622345 810.722900,306.767761 
z"/>
<path fill="#000000" opacity="1.000000" stroke="none" 
	d="
M767.990723,281.016541 
	C775.414551,280.268463 781.825317,276.555450 788.574585,273.815765 
	C796.809143,270.473175 805.030640,267.098694 814.394531,263.273682 
	C808.046082,270.239960 760.301758,290.638824 756.429443,288.393921 
	C759.093506,284.281738 764.185974,284.188263 767.827515,281.238892 
	C768.049194,280.974030 768.009094,281.000977 767.990723,281.016541 
z"/>
<path fill="#000000" opacity="1.000000" stroke="none" 
	d="
M264.302887,348.395325 
	C266.673859,349.052399 268.982178,349.063904 270.419434,352.459961 
	C249.202789,350.377808 229.055084,346.287659 208.867554,342.365967 
	C227.350037,343.162384 245.850220,343.691956 264.302887,348.395325 
z"/>
<path fill="#000000" opacity="1.000000" stroke="none" 
	d="
M656.150391,697.645996 
	C654.981384,683.984558 653.884949,670.780212 652.788452,657.575867 
	C653.290161,657.533936 653.791870,657.492004 654.293518,657.450073 
	C659.279480,676.590027 661.721191,695.951660 658.166992,715.847473 
	C656.088989,710.094055 657.374023,703.956482 656.150391,697.645996 
z"/>
<path fill="#000000" opacity="1.000000" stroke="none" 
	d="
M235.985992,307.145264 
	C229.938782,304.885895 223.889786,303.723602 217.566559,300.411743 
	C235.673996,301.281738 272.411896,314.783081 277.094360,322.634918 
	C263.307709,318.093262 250.239883,311.559143 235.985992,307.145264 
z"/>
<path fill="#000000" opacity="1.000000" stroke="none" 
	d="
M262.385681,289.596619 
	C269.622101,292.391479 277.142212,293.488525 283.360535,297.818176 
	C282.417572,300.499329 280.687469,299.836243 279.079437,299.686218 
	C274.660828,299.274139 270.775940,297.223602 266.844360,295.495880 
	C255.263626,290.406586 243.790100,285.072723 232.295837,279.788391 
	C231.333817,279.346130 230.001923,279.096832 229.969009,276.681274 
	C240.867661,281.025757 251.443542,285.241608 262.385681,289.596619 
z"/>
<path fill="#000000" opacity="1.000000" stroke="none" 
	d="
M794.981812,375.233276 
	C789.038452,375.579163 783.570251,375.949982 778.097168,376.221893 
	C776.609436,376.295807 774.834595,376.271820 774.744019,374.185181 
	C774.655151,372.138855 776.420959,371.902588 777.889221,371.780365 
	C793.644775,370.469208 809.434692,370.745087 825.219666,370.851593 
	C825.838501,370.855743 826.556274,371.002930 826.720581,372.613831 
	C816.304993,373.482361 805.880005,374.351685 794.981812,375.233276 
z"/>
<path fill="#000000" opacity="1.000000" stroke="none" 
	d="
M800.319946,393.717468 
	C806.083435,395.360535 811.363892,397.118286 817.023438,397.817963 
	C821.505127,398.372040 826.256042,398.041473 830.397583,400.802612 
	C811.772217,398.390808 792.777161,399.095337 774.470154,393.776215 
	C783.023071,391.704834 791.450439,394.784241 800.319946,393.717468 
z"/>
<path fill="#000000" opacity="1.000000" stroke="none" 
	d="
M231.095734,382.112122 
	C226.676132,381.948181 222.734680,381.852539 218.909775,380.358337 
	C235.627533,379.234741 252.262589,376.757843 269.028931,377.016266 
	C269.093262,377.844086 269.157623,378.671936 269.221954,379.499756 
	C256.950317,383.007050 244.232758,382.260620 231.095734,382.112122 
z"/>
<path fill="#000000" opacity="1.000000" stroke="none" 
	d="
M248.179474,299.714478 
	C258.930054,303.144775 268.865601,307.412445 278.138977,313.283722 
	C272.776093,314.538544 267.776306,313.130005 263.428223,310.726044 
	C252.165207,304.498871 240.534241,299.211578 228.388046,295.007172 
	C227.640381,294.748383 226.768616,294.491272 226.426773,292.880890 
	C234.024582,294.217163 240.768631,297.412567 248.179474,299.714478 
z"/>
<path fill="#000000" opacity="1.000000" stroke="none" 
	d="
M775.178040,455.946106 
	C770.413635,453.501770 765.971069,451.244171 761.549316,448.946625 
	C759.767761,448.020905 757.855957,447.103760 759.521790,443.364166 
	C776.270142,452.631653 792.867798,461.815765 809.465515,470.999908 
	C809.246155,471.424896 809.026855,471.849915 808.807495,472.274902 
	C797.249817,467.868195 786.556396,461.613159 775.178040,455.946106 
z"/>
<path fill="#000000" opacity="1.000000" stroke="none" 
	d="
M258.704346,373.638367 
	C260.674774,373.878784 262.293945,374.051697 263.913116,374.224640 
	C250.762878,376.994446 237.763885,374.294312 224.034943,374.088715 
	C225.383224,372.963654 267.614777,367.681976 269.296600,368.306854 
	C264.826355,371.731232 259.372528,369.921753 254.644669,372.502838 
	C256.128998,372.930328 257.241028,373.250580 258.704346,373.638367 
z"/>
<path fill="#000000" opacity="1.000000" stroke="none" 
	d="
M238.122223,352.792450 
	C248.855179,353.945343 259.320343,353.701202 270.004761,356.537598 
	C268.270050,359.752014 265.976868,359.296906 263.984009,359.321777 
	C251.882614,359.472687 240.220840,356.483032 228.510391,354.037018 
	C225.568024,353.422424 222.212769,353.832031 218.535233,351.107941 
	C225.765839,350.566193 231.639969,352.761169 238.122223,352.792450 
z"/>
<path fill="#000000" opacity="1.000000" stroke="none" 
	d="
M768.385925,292.517273 
	C765.188721,293.106476 762.490906,294.962646 759.390442,293.462799 
	C760.439514,291.834869 814.884155,273.227051 818.836731,273.495422 
	C802.201050,279.928467 786.171143,287.921143 768.385925,292.517273 
z"/>
<path fill="#000000" opacity="1.000000" stroke="none" 
	d="
M764.640869,454.315796 
	C777.668152,462.551056 790.987549,469.661041 803.225159,478.449219 
	C803.007690,478.829529 802.790283,479.209808 802.572876,479.590118 
	C798.465088,477.305450 794.386414,474.966370 790.243713,472.746826 
	C779.827820,467.166168 769.359863,461.682312 758.973450,456.047699 
	C757.302551,455.141296 753.976868,454.522125 755.779236,451.636688 
	C757.434509,448.986603 759.549133,451.312744 761.333069,452.327881 
	C762.345276,452.903870 763.331665,453.525238 764.640869,454.315796 
z"/>
<path fill="#000000" opacity="1.000000" stroke="none" 
	d="
M784.389893,320.300842 
	C798.096924,316.129395 811.774048,314.396057 825.560608,313.357697 
	C825.639465,313.753906 825.718262,314.150146 825.797119,314.546387 
	C806.909546,318.658630 788.022034,322.770905 769.134460,326.883179 
	C768.984802,326.387085 768.835083,325.890991 768.685425,325.394897 
	C773.173950,322.126770 778.828308,321.912506 784.389893,320.300842 
z"/>
<path fill="#000000" opacity="1.000000" stroke="none" 
	d="
M811.588989,387.346985 
	C821.124695,388.778656 830.235291,390.119385 839.345947,391.460114 
	C839.269287,392.056610 839.192627,392.653137 839.116028,393.249634 
	C818.219116,390.447815 797.285400,388.014160 776.262695,386.468628 
	C781.369385,383.005157 786.977661,383.227570 811.588989,387.346985 
z"/>
<path fill="#000000" opacity="1.000000" stroke="none" 
	d="
M215.899475,392.328247 
	C225.564224,389.631042 235.465790,389.735931 245.098495,387.893127 
	C250.804764,386.801453 256.602661,386.191833 262.355011,385.336395 
	C264.526337,385.013489 266.630707,384.942993 268.859467,386.499420 
	C265.979553,389.543945 262.172485,389.021362 258.799561,389.574158 
	C245.826492,391.700500 232.699615,392.256134 219.609573,393.156616 
	C218.340927,393.243896 216.936768,393.543823 215.899475,392.328247 
z"/>
<path fill="#000000" opacity="1.000000" stroke="none" 
	d="
M745.782593,255.605499 
	C759.649902,245.807495 772.293274,234.807144 787.304810,227.236877 
	C773.710571,238.676285 759.997314,249.938568 745.006104,259.786133 
	C743.813904,257.521088 744.995483,256.797943 745.782593,255.605499 
z"/>
<path fill="#000000" opacity="1.000000" stroke="none" 
	d="
M255.377563,361.171265 
	C260.388184,360.948547 265.031982,360.128540 269.619690,362.664703 
	C262.980988,366.830444 224.003555,364.824921 217.543625,360.087189 
	C230.654327,360.393555 242.760315,362.936066 255.377563,361.171265 
z"/>
<path fill="#000000" opacity="1.000000" stroke="none" 
	d="
M778.122559,472.826965 
	C783.545288,476.625031 788.685059,480.200653 793.824768,483.776245 
	C793.551208,484.198669 793.277710,484.621063 793.004150,485.043488 
	C779.214294,476.364807 764.257141,469.592316 751.146545,459.804443 
	C751.585388,459.044037 752.024170,458.283630 752.463013,457.523224 
	C761.801453,460.917511 769.297974,467.730865 778.122559,472.826965 
z"/>
<path fill="#000000" opacity="1.000000" stroke="none" 
	d="
M795.545654,419.655579 
	C786.592957,417.376556 778.268555,414.600647 770.173767,411.419220 
	C770.829407,408.987640 772.035461,408.794891 773.176208,409.151154 
	C788.638367,413.979950 804.082520,418.866760 819.531067,423.739197 
	C819.417480,424.177521 819.303894,424.615845 819.190247,425.054169 
	C811.442566,423.295685 803.694824,421.537231 795.545654,419.655579 
z"/>
<path fill="#000000" opacity="1.000000" stroke="none" 
	d="
M263.096222,332.022400 
	C250.033722,328.472290 238.058350,323.243958 226.324966,317.332916 
	C242.417007,321.474274 258.272949,326.281128 274.035889,332.958588 
	C270.801331,334.447754 270.801331,334.447754 263.096222,332.022400 
z"/>
<path fill="#000000" opacity="1.000000" stroke="none" 
	d="
M266.922913,423.118347 
	C258.426971,423.870361 251.302002,427.722717 243.698593,429.964844 
	C238.816910,431.404388 234.073425,433.375671 229.001770,433.903351 
	C228.376678,432.844330 229.160324,432.479431 229.668991,432.332428 
	C242.562195,428.606628 254.444717,421.955963 267.665771,419.195831 
	C269.609650,418.790009 271.587097,418.535339 273.556305,418.263641 
	C275.506439,417.994598 277.256989,418.147888 277.685333,420.858948 
	C274.667267,423.463989 270.609253,421.552094 266.922913,423.118347 
z"/>
<path fill="#000000" opacity="1.000000" stroke="none" 
	d="
M237.847153,313.000793 
	C251.030151,317.008270 263.881897,320.774872 276.265442,328.094421 
	C272.546356,329.103302 231.397507,313.925934 227.750534,310.236511 
	C230.987137,311.122345 234.223740,312.008148 237.847153,313.000793 
z"/>
<path fill="#000000" opacity="1.000000" stroke="none" 
	d="
M776.857117,245.908691 
	C766.889526,251.833374 758.456604,259.485992 747.967102,263.967804 
	C762.404602,251.757202 778.208069,241.566162 794.311157,231.814301 
	C794.625916,232.257980 794.940674,232.701660 795.255432,233.145340 
	C789.221375,237.331360 783.187317,241.517365 776.857117,245.908691 
z"/>
<path fill="#000000" opacity="1.000000" stroke="none" 
	d="
M760.923706,265.006470 
	C757.643677,266.881073 754.669067,268.557037 750.810059,270.731293 
	C754.404907,263.936768 786.149902,244.139999 795.399048,242.747833 
	C783.893799,251.229599 772.302307,257.627899 760.923706,265.006470 
z"/>
<path fill="#000000" opacity="1.000000" stroke="none" 
	d="
M770.691650,332.158447 
	C772.780212,328.677368 776.460632,329.163635 779.508789,328.226898 
	C790.699036,324.788116 802.474121,323.869141 813.705933,320.354980 
	C809.893677,323.755707 805.093079,324.925659 800.511597,326.364960 
	C792.929077,328.747192 785.222351,330.742462 777.536682,332.783051 
	C775.323425,333.370636 772.988708,333.873230 770.691650,332.158447 
z"/>
<path fill="#000000" opacity="1.000000" stroke="none" 
	d="
M236.631866,396.573181 
	C248.241821,394.214264 259.479095,392.309357 270.887054,392.125854 
	C270.979492,392.851898 271.071899,393.577942 271.164337,394.303986 
	C254.183304,396.687561 237.202286,399.071136 220.221268,401.454712 
	C220.127914,401.001282 220.034576,400.547852 219.941223,400.094421 
	C225.368988,398.955353 230.796753,397.816315 236.631866,396.573181 
z"/>
<path fill="#000000" opacity="1.000000" stroke="none" 
	d="
M273.876434,413.851807 
	C274.472778,415.516266 273.401215,415.894440 272.446899,415.920593 
	C260.155670,416.257690 248.675323,420.314911 237.012772,423.543121 
	C236.574127,423.664520 236.085358,423.604797 235.435577,423.054413 
	C247.437424,417.852509 259.535095,412.972382 273.177155,409.094147 
	C271.501007,413.041138 268.671814,412.028809 266.764221,413.622925 
	C269.249908,413.622925 271.435303,413.622925 273.876434,413.851807 
z"/>
<path fill="#000000" opacity="1.000000" stroke="none" 
	d="
M803.586792,449.498291 
	C790.695801,443.367767 777.144775,440.021851 763.989563,435.301147 
	C765.472473,432.269135 767.216919,433.116882 768.714905,433.593323 
	C783.815369,438.395599 798.343811,444.641968 812.752258,451.181000 
	C813.134094,451.354309 813.341125,451.912903 813.975891,452.746399 
	C809.933228,452.879578 807.045105,450.879547 803.586792,449.498291 
z"/>
<path fill="#000000" opacity="1.000000" stroke="none" 
	d="
M772.373291,483.715240 
	C763.661255,478.142853 754.495667,473.894257 747.343384,466.612061 
	C761.962097,471.465515 773.112000,482.049103 786.006165,489.772003 
	C780.892273,489.222687 777.098938,485.886353 772.373291,483.715240 
z"/>
<path fill="#000000" opacity="1.000000" stroke="none" 
	d="
M812.998230,381.382996 
	C800.284424,381.174622 788.018127,382.022858 775.418030,380.039490 
	C778.839539,376.906067 818.185364,377.583435 829.936951,380.706390 
	C823.998535,381.721802 818.726624,381.168854 812.998230,381.382996 
z"/>
<path fill="#000000" opacity="1.000000" stroke="none" 
	d="
M766.971924,426.782410 
	C776.779053,427.468048 785.774292,430.371552 794.354736,434.255310 
	C797.815308,435.821655 801.956970,436.302887 804.660278,439.669098 
	C797.774353,437.390869 790.747681,435.904297 783.708313,434.420044 
	C779.016357,433.430756 774.450317,431.790131 769.892395,430.250214 
	C768.418640,429.752319 765.981079,429.777069 766.971924,426.782410 
z"/>
<path fill="#000000" opacity="1.000000" stroke="none" 
	d="
M380.948334,434.320526 
	C373.374756,435.335052 366.371002,438.172455 358.927887,436.574066 
	C364.100433,433.008820 370.306915,434.592987 375.822998,432.827026 
	C381.345886,431.058807 384.360870,424.795959 391.842651,424.350128 
	C390.036591,430.217590 385.969116,432.498871 380.948334,434.320526 
z"/>
<path fill="#000000" opacity="1.000000" stroke="none" 
	d="
M766.407227,442.785034 
	C764.668274,441.864380 762.817932,441.806488 761.985718,440.086456 
	C765.693542,438.381287 790.115540,447.611450 795.724426,453.317627 
	C785.532104,451.419159 776.320679,446.636444 766.407227,442.785034 
z"/>
<path fill="#000000" opacity="1.000000" stroke="none" 
	d="
M439.371155,453.265991 
	C436.331970,456.984222 434.574036,461.446533 429.603424,463.080475 
	C439.490784,453.739288 441.562042,441.283752 443.355347,428.713470 
	C446.819550,434.122009 444.812561,444.970459 439.371155,453.265991 
z"/>
<path fill="#000000" opacity="1.000000" stroke="none" 
	d="
M265.612793,461.552124 
	C272.875671,457.685577 278.723724,451.801575 287.372955,450.001709 
	C285.477051,454.287048 264.578766,466.695709 258.674042,467.450134 
	C260.061188,464.322693 263.055420,463.439453 265.612793,461.552124 
z"/>
<path fill="#000000" opacity="1.000000" stroke="none" 
	d="
M257.349731,457.747437 
	C265.919525,451.863800 274.489563,446.650177 284.121765,442.924744 
	C284.840546,445.689789 283.693176,446.334137 282.734436,446.842621 
	C275.133575,450.874146 267.513397,454.870819 259.838104,458.757782 
	C259.055511,459.154053 257.187103,460.938019 257.349731,457.747437 
z"/>
<path fill="#000000" opacity="1.000000" stroke="none" 
	d="
M279.358337,440.550323 
	C269.884613,445.174652 261.000824,450.229767 250.993958,452.843994 
	C261.146240,447.299072 270.548401,440.322021 281.821106,436.440308 
	C282.634033,439.382599 280.777863,439.598083 279.358337,440.550323 
z"/>
<path fill="#000000" opacity="1.000000" stroke="none" 
	d="
M267.466339,473.218140 
	C266.331421,473.831238 265.473816,474.269775 264.305450,474.867188 
	C267.330597,469.145294 285.650085,457.159760 290.788910,459.059448 
	C283.107178,463.720825 275.425446,468.382172 267.466339,473.218140 
z"/>
<path fill="#000000" opacity="1.000000" stroke="none" 
	d="
M274.600464,480.651123 
	C272.156433,482.095612 270.011353,483.341156 267.866272,484.586731 
	C270.678589,480.138550 275.061554,477.637665 279.090332,474.727325 
	C283.137573,471.803680 287.247742,468.967194 291.309174,466.062927 
	C292.535797,465.185852 293.942413,463.807373 295.158417,465.492767 
	C296.788788,467.752380 294.332001,468.286926 293.027100,468.960022 
	C286.639008,472.254913 280.828308,476.443451 274.600464,480.651123 
z"/>
<path fill="#000000" opacity="1.000000" stroke="none" 
	d="
M750.747681,479.293945 
	C748.002625,476.556152 744.442139,475.123077 743.210388,471.227661 
	C753.306824,477.138916 761.453491,485.867310 771.943542,491.204010 
	C763.586914,489.718018 757.483093,484.305634 750.747681,479.293945 
z"/>
<path fill="#000000" opacity="1.000000" stroke="none" 
	d="
M253.371552,444.392914 
	C251.351776,445.054932 249.684448,445.591614 248.017120,446.128265 
	C247.885162,445.746765 247.753220,445.365265 247.621277,444.983734 
	C257.365051,440.661133 266.439514,434.723816 278.004761,433.150024 
	C275.746429,435.929443 272.880341,436.548218 270.330902,437.646790 
	C267.594299,438.826050 264.806122,439.886017 262.036163,440.987244 
	C259.268219,442.087677 256.494934,443.174652 253.371552,444.392914 
z"/>
<path fill="#000000" opacity="1.000000" stroke="none" 
	d="
M252.917816,433.785706 
	C257.619049,432.772034 261.785461,431.081085 266.672455,431.070526 
	C263.375977,433.977234 252.392517,437.297729 243.361832,438.156281 
	C246.426758,435.615784 249.334808,434.460907 252.917816,433.785706 
z"/>
<path fill="#000000" opacity="1.000000" stroke="none" 
	d="
M415.797668,445.769226 
	C414.242828,447.213287 413.096985,448.710114 410.292908,448.451477 
	C410.961090,444.317291 413.518494,442.247986 416.886505,440.667786 
	C418.811279,442.937744 416.997467,444.131256 415.797668,445.769226 
z"/>
<path fill="#000000" opacity="1.000000" stroke="none" 
	d="
M261.244385,428.125610 
	C262.910065,427.792023 264.193146,427.702393 265.895447,428.524078 
	C262.528351,431.650635 258.666412,430.854309 255.053055,431.203217 
	C256.510864,429.112549 258.818695,428.921387 261.244385,428.125610 
z"/>
<path fill="#000000" opacity="1.000000" stroke="none" 
	d="
M804.870728,248.445953 
	C803.018005,252.556305 799.163940,253.234467 795.378418,254.060181 
	C797.978882,251.319839 800.707703,248.804321 804.870728,248.445953 
z"/>
<path fill="#000000" opacity="1.000000" stroke="none" 
	d="
M466.091431,421.233521 
	C466.612244,419.264832 467.269653,417.808502 469.663300,417.544647 
	C469.206543,420.234894 469.042969,422.777649 467.046814,424.768921 
	C465.465546,423.893951 466.174988,422.618713 466.091431,421.233521 
z"/>
<path fill="#000000" opacity="1.000000" stroke="none" 
	d="
M316.979736,350.017181 
	C321.357208,350.514893 323.778320,354.166595 327.020874,356.514282 
	C323.195862,355.535217 319.980591,353.529358 317.169617,350.273926 
	C317.014984,349.973419 316.992798,350.003510 316.979736,350.017181 
z"/>
<path fill="#000000" opacity="1.000000" stroke="none" 
	d="
M497.657623,210.101974 
	C497.286987,211.052490 497.115753,211.844543 496.850311,213.072357 
	C493.670746,211.073563 490.563721,209.803192 488.429352,214.238281 
	C487.995697,215.139404 486.983643,214.394638 486.202911,214.334457 
	C482.631622,214.059097 479.064911,213.880829 475.538574,214.907150 
	C469.845703,216.564026 464.779755,215.375748 460.159546,211.302917 
	C463.371643,205.907196 469.065918,202.423447 473.916595,201.704742 
	C484.612122,200.120041 496.371979,195.139755 505.928802,205.549332 
	C504.430145,210.178452 501.645905,211.812729 497.657623,210.101974 
z"/>
<path fill="#000000" opacity="1.000000" stroke="none" 
	d="
M483.261536,247.474442 
	C486.279266,252.083786 486.432678,257.950928 489.793518,262.628967 
	C490.692230,261.232452 489.557495,259.468323 491.011169,258.477112 
	C501.683990,263.572723 506.429962,272.213501 504.833221,284.397400 
	C502.021515,281.446594 501.138458,277.768951 499.069702,274.872894 
	C497.072266,272.076630 494.884674,269.416229 491.880035,265.531952 
	C492.201599,268.627502 492.363068,270.182281 492.524567,271.737030 
	C485.771271,264.314850 477.791351,258.573730 470.409546,251.294388 
	C469.279358,254.798828 470.717896,257.873291 468.935181,261.712158 
	C465.984314,256.190247 463.422241,251.395905 460.632721,246.175873 
	C468.120148,242.851059 475.072998,241.287064 482.488525,246.709305 
	C483.041199,247.200821 483.151367,247.337631 483.261536,247.474442 
z"/>
<path fill="#000000" opacity="1.000000" stroke="none" 
	d="
M498.827240,222.356506 
	C505.113831,221.704422 508.347412,227.113098 513.229736,229.053299 
	C517.112854,230.596466 516.266052,235.745575 516.054688,239.807388 
	C513.187378,239.505249 514.025024,237.049774 512.749939,235.880905 
	C511.712280,236.962112 513.038879,238.798035 511.388702,239.824936 
	C507.887054,237.085419 508.044128,231.650742 504.232788,229.115067 
	C502.367279,230.137741 503.866913,232.161469 502.587036,233.165924 
	C501.043060,233.554169 500.758087,231.342682 499.092438,231.472107 
	C498.581329,232.818054 498.076782,234.146729 497.549255,235.535934 
	C491.597046,231.686981 485.516205,228.501541 479.793610,222.301086 
	C486.834045,222.627762 492.706055,222.881653 498.827240,222.356506 
z"/>
<path fill="#000000" opacity="1.000000" stroke="none" 
	d="
M547.247192,237.858200 
	C545.659790,237.650360 546.072021,236.206436 544.907715,235.340927 
	C543.705139,240.188324 538.929749,239.189194 535.843445,241.105942 
	C530.405945,244.482971 526.607300,249.310349 524.644226,256.172028 
	C523.707703,254.924454 523.147217,254.498642 523.212463,254.218597 
	C526.173218,241.507568 529.675354,233.140915 543.415405,230.317917 
	C546.749512,229.632889 549.591309,226.659317 552.727539,224.856567 
	C554.248352,223.982376 556.026794,222.593445 557.570374,224.675674 
	C558.954590,226.543076 557.820557,227.973312 556.398193,229.402969 
	C553.523865,232.292007 551.960571,236.534973 547.247192,237.858200 
z"/>
<path fill="#000000" opacity="1.000000" stroke="none" 
	d="
M536.480652,260.656555 
	C539.768005,255.125549 544.135376,251.539429 550.033630,249.924774 
	C556.304749,248.208069 562.373291,244.907944 569.201721,247.437439 
	C567.054810,253.651367 563.908386,255.623962 557.399475,254.687943 
	C555.948669,254.479294 554.495911,253.636566 553.429749,255.337402 
	C549.219238,262.054260 540.274719,262.631836 535.741699,268.957397 
	C535.456848,269.354919 534.603516,269.345123 533.568726,269.660950 
	C533.606628,266.199066 535.082886,263.627167 536.480652,260.656555 
z"/>
<path fill="#000000" opacity="1.000000" stroke="none" 
	d="
M536.844238,220.934982 
	C533.515015,222.896255 534.283997,220.600937 534.612305,219.047516 
	C535.945923,212.736130 539.071533,210.829880 548.801086,210.493866 
	C549.311340,205.493103 552.097595,202.124008 556.505188,200.254303 
	C559.052002,201.990051 556.634766,203.645599 557.293030,205.135483 
	C558.675598,206.227295 559.580872,203.941940 561.272461,204.801529 
	C561.087219,207.055206 563.034241,209.718079 560.401672,211.852722 
	C558.171021,213.661453 556.981262,210.830933 555.186523,210.308365 
	C553.158325,212.025024 554.004700,215.683685 550.963867,216.654907 
	C549.413818,217.149979 549.599976,214.947296 547.753296,214.821808 
	C545.242981,217.537445 542.463745,220.544052 539.533813,223.713669 
	C539.088806,222.120605 537.632202,220.583099 536.844238,220.934982 
z"/>
<path fill="#000000" opacity="1.000000" stroke="none" 
	d="
M542.300049,205.334839 
	C539.212463,210.186630 532.840210,208.332092 530.276672,212.356140 
	C528.023865,212.211380 528.192383,210.439453 526.913513,208.727829 
	C526.889893,213.781036 521.631958,211.589676 520.804321,215.088272 
	C520.475525,210.264832 523.403748,205.572037 528.671509,203.247620 
	C534.221497,200.798645 539.886108,197.600281 546.288757,200.608994 
	C546.009705,203.594147 543.834106,203.919464 542.300049,205.334839 
z"/>
<path fill="#000000" opacity="1.000000" stroke="none" 
	d="
M482.759644,246.863800 
	C481.678070,243.949051 484.467468,243.304840 485.476746,241.398361 
	C490.947540,244.063751 498.149628,244.221100 500.233185,252.264038 
	C495.244415,253.269897 493.708038,248.393005 490.202087,247.429474 
	C489.939911,249.255066 490.913849,251.251129 489.525543,253.050461 
	C486.623352,252.244324 485.933777,249.174652 483.501556,247.631912 
	C483.151367,247.337631 483.041199,247.200821 482.759644,246.863800 
z"/>
<path fill="#000000" opacity="1.000000" stroke="none" 
	d="
M518.204712,281.781311 
	C518.646912,278.940826 519.335632,276.457031 522.042969,275.569427 
	C523.524475,275.083771 524.319275,276.648682 525.312134,277.465912 
	C527.303833,279.105194 525.965881,280.827759 525.287170,282.409729 
	C524.520752,284.195862 524.039246,286.195526 522.302185,287.566376 
	C519.873962,286.535248 519.860229,283.741364 518.204712,281.781311 
z"/>
<path fill="#000000" opacity="1.000000" stroke="none" 
	d="
M511.397034,278.723541 
	C510.832184,277.187347 510.308777,275.977539 511.155640,274.685181 
	C516.350891,278.310516 518.463745,283.802094 516.366638,289.596130 
	C514.583740,285.714172 513.053345,282.382141 511.397034,278.723541 
z"/>
<path fill="#000000" opacity="1.000000" stroke="none" 
	d="
M577.141357,248.050140 
	C575.221191,251.521912 572.377869,253.438614 568.716614,254.540466 
	C569.196655,249.680389 572.286682,247.277832 577.141357,248.050140 
z"/>
<path fill="#000000" opacity="1.000000" stroke="none" 
	d="
M526.369873,226.605270 
	C524.642822,228.739105 524.200012,231.429153 521.211731,233.344315 
	C520.504456,227.348358 525.461853,226.010529 527.462708,222.092590 
	C528.838562,224.723633 527.014404,225.248901 526.369873,226.605270 
z"/>
<path fill="#000000" opacity="1.000000" stroke="none" 
	d="
M475.308746,226.929321 
	C476.330414,229.116501 476.085571,230.734909 474.243408,232.181000 
	C471.778564,230.569275 473.255524,227.534134 471.221252,225.937531 
	C473.369659,224.591263 474.208496,225.761993 475.308746,226.929321 
z"/>
<path fill="#000000" opacity="1.000000" stroke="none" 
	d="
M606.448669,429.458221 
	C607.071716,432.340424 607.412415,434.893982 606.242798,438.321625 
	C604.337097,434.397247 604.172058,431.120819 604.250854,427.774902 
	C605.616211,427.610870 605.909668,428.446808 606.448669,429.458221 
z"/>
</svg>